<?xml version="1.0" encoding="UTF-8" standalone="no"?>
<!-- Created with sK1/UniConvertor (http://sk1project.org/) -->

<svg
   width="840.5pt"
   height="840.80902pt"
   viewBox="0 0 840.5 840.80901"
   fill-rule="evenodd"
   version="1.1"
   id="svg71"
   sodipodi:docname="front_cover.svg"
   inkscape:version="1.3.2 (091e20e, 2023-11-25, custom)"
   xmlns:inkscape="http://www.inkscape.org/namespaces/inkscape"
   xmlns:sodipodi="http://sodipodi.sourceforge.net/DTD/sodipodi-0.dtd"
   xmlns="http://www.w3.org/2000/svg"
   xmlns:svg="http://www.w3.org/2000/svg">
  <defs
     id="defs71" />
  <sodipodi:namedview
     id="namedview71"
     pagecolor="#ffffff"
     bordercolor="#000000"
     borderopacity="0.25"
     inkscape:showpageshadow="2"
     inkscape:pageopacity="0.0"
     inkscape:pagecheckerboard="0"
     inkscape:deskcolor="#d1d1d1"
     inkscape:document-units="pt"
     inkscape:zoom="256"
     inkscape:cx="1120.125"
     inkscape:cy="114.33008"
     inkscape:window-width="1536"
     inkscape:window-height="793"
     inkscape:window-x="149"
     inkscape:window-y="1072"
     inkscape:window-maximized="1"
     inkscape:current-layer="svg71"
     showguides="true" />
  <g
     id="g71"
     transform="translate(0.52543707,-1.506073)">
    <path
       style="fill:none;stroke:#000000;stroke-width:0.850394;stroke-linecap:round;stroke-linejoin:round"
       d="M 0.0414922,421.911 V 170.493"
       id="path1" />
    <path
       style="fill:none;stroke:#000000;stroke-width:0.850394;stroke-linecap:round;stroke-linejoin:round"
       d="M 17.8715,153.839 H 285.985"
       id="path2" />
    <path
       style="fill:none;stroke:#000000;stroke-width:0.850394;stroke-linecap:round;stroke-linejoin:round"
       d="M 17.8715,153.839 C 8.00695,153.839 0,161.846 0,171.71 c 0,0.409 0.0137723,0.815 0.0408779,1.217"
       id="path3" />
    <path
       style="fill:none;stroke:#000000;stroke-width:0.850394;stroke-linecap:round;stroke-linejoin:round"
       d="M 285.985,153.839 V 1.93127"
       id="path4" />
    <path
       style="fill:none;stroke:#000000;stroke-width:0.850394;stroke-linecap:round;stroke-linejoin:round"
       d="M 285.985,1.93127 H 777.45"
       id="path5" />
    <path
       style="fill:none;stroke:#000000;stroke-width:0.850394;stroke-linecap:round;stroke-linejoin:round"
       d="M 777.45,1.93127 V 421.911"
       id="path6" />
    <path
       style="fill:none;stroke:#000000;stroke-width:0.850394;stroke-linecap:round;stroke-linejoin:round"
       d="M 285.985,153.839 V 421.911"
       id="path7" />
    <path
       style="fill:none;stroke:#000000;stroke-width:0.850394;stroke-linecap:round;stroke-linejoin:round"
       d="M 285.985,37.6742 H 777.45"
       id="path8" />
    <path
       style="fill:none;stroke:#000000;stroke-width:0.850394;stroke-linecap:round;stroke-linejoin:round"
       d="M 0.0414922,421.911 V 673.328"
       id="path9" />
    <path
       style="fill:none;stroke:#000000;stroke-width:0.850394;stroke-linecap:round;stroke-linejoin:round"
       d="M 17.8715,689.982 H 285.985"
       id="path10" />
    <path
       style="fill:none;stroke:#000000;stroke-width:0.850394;stroke-linecap:round;stroke-linejoin:round"
       d="M 0.0408779,670.894 C 0.0137723,671.296 0,671.702 0,672.111 c 0,9.864 8.00695,17.871 17.8715,17.871"
       id="path11" />
    <path
       style="fill:none;stroke:#000000;stroke-width:0.850394;stroke-linecap:round;stroke-linejoin:round"
       d="M 285.985,689.982 V 841.89"
       id="path12" />
    <path
       style="fill:none;stroke:#000000;stroke-width:0.850394;stroke-linecap:round;stroke-linejoin:round"
       d="M 285.985,841.89 H 777.45"
       id="path13" />
    <path
       style="fill:none;stroke:#000000;stroke-width:0.850394;stroke-linecap:round;stroke-linejoin:round"
       d="M 285.985,689.982 V 421.911"
       id="path14" />
    <path
       style="fill:none;stroke:#000000;stroke-width:0.850394;stroke-linecap:round;stroke-linejoin:round"
       d="M 17.8715,153.839 V 689.982"
       id="path15" />
    <path
       style="fill:none;stroke:#000000;stroke-width:0.850394;stroke-linecap:round;stroke-linejoin:round"
       d="m 617.688,266.869 -22.003,21.773"
       id="path16" />
    <path
       style="fill:none;stroke:#000000;stroke-width:0.850394;stroke-linecap:round;stroke-linejoin:round"
       d="m 595.685,288.642 7.855,29.941"
       id="path17" />
    <path
       style="fill:none;stroke:#000000;stroke-width:0.850394;stroke-linecap:round;stroke-linejoin:round"
       d="m 603.54,318.583 29.857,8.169"
       id="path18" />
    <path
       style="fill:none;stroke:#000000;stroke-width:0.850394;stroke-linecap:round;stroke-linejoin:round"
       d="M 633.397,326.752 655.4,304.979"
       id="path19" />
    <path
       style="fill:none;stroke:#000000;stroke-width:0.850394;stroke-linecap:round;stroke-linejoin:round"
       d="m 655.4,304.979 -7.855,-29.941"
       id="path20" />
    <path
       style="fill:none;stroke:#000000;stroke-width:0.850394;stroke-linecap:round;stroke-linejoin:round"
       d="m 647.545,275.038 -29.857,-8.169"
       id="path21" />
    <path
       style="fill:none;stroke:#000000;stroke-width:0.850394;stroke-linecap:round;stroke-linejoin:round"
       d="m 665.753,296.81 c 0,-22.195 -18.015,-40.21 -40.211,-40.21 -22.195,0 -40.21,18.015 -40.21,40.21 0,22.195 18.015,40.211 40.21,40.211 22.196,0 40.211,-18.016 40.211,-40.211 z"
       id="path22" />
    <path
       style="fill:none;stroke:#000000;stroke-width:0.850394;stroke-linecap:round;stroke-linejoin:round"
       d="m 692.086,296.81 c 0,-36.729 -29.814,-66.543 -66.544,-66.543 -36.729,0 -66.543,29.814 -66.543,66.543 0,36.73 29.814,66.543 66.543,66.543 36.73,0 66.544,-29.813 66.544,-66.543 z"
       id="path23" />
    <path
       style="fill:none;stroke:#000000;stroke-width:0.850394;stroke-linecap:round;stroke-linejoin:round"
       d="m 710.432,296.81 c 0,-46.856 -38.033,-84.889 -84.89,-84.889 -46.856,0 -84.889,38.033 -84.889,84.889 0,46.857 38.033,84.89 84.889,84.89 46.857,0 84.89,-38.033 84.89,-84.89 z"
       id="path24" />
    <path
       style="fill:none;stroke:#000000;stroke-width:0.850394;stroke-linecap:round;stroke-linejoin:round"
       d="m 580.864,493.396 c 0,-29.593 -24.021,-53.614 -53.614,-53.614 -29.594,0 -53.615,24.021 -53.615,53.614 0,29.594 24.021,53.615 53.615,53.615 29.593,0 53.614,-24.021 53.614,-53.615 z"
       id="path25" />
    <path
       style="fill:none;stroke:#000000;stroke-width:0.850394;stroke-linecap:round;stroke-linejoin:round"
       d="m 607.671,493.396 c 0,-44.39 -36.031,-80.421 -80.421,-80.421 -44.391,0 -80.422,36.031 -80.422,80.421 0,44.391 36.031,80.422 80.422,80.422 44.39,0 80.421,-36.031 80.421,-80.422 z"
       id="path26" />
    <path
       style="fill:none;stroke:#000000;stroke-width:0.850394;stroke-linecap:round;stroke-linejoin:round"
       d="M 509.378,442.848 V 543.944"
       id="path27" />
    <path
       style="fill:none;stroke:#000000;stroke-width:0.850394;stroke-linecap:round;stroke-linejoin:round"
       d="M 777.45,582.754 H 285.985"
       id="path28" />
    <path
       style="fill:none;stroke:#000000;stroke-width:0.850394;stroke-linecap:round;stroke-linejoin:round"
       d="M 777.45,841.89 V 757"
       id="path29" />
    <path
       style="fill:none;stroke:#000000;stroke-width:0.850394;stroke-linecap:round;stroke-linejoin:round"
       d="M 777.45,86.8207 H 840"
       id="path30" />
    <path
       style="fill:none;stroke:#000000;stroke-width:0.850394;stroke-linecap:round;stroke-linejoin:round"
       d="M 840,176.178 H 777.45"
       id="path31" />
    <path
       style="fill:none;stroke:#000000;stroke-width:0.850394;stroke-linecap:round;stroke-linejoin:round"
       d="m 285.985,658.707 h 80.421"
       id="path32" />
    <path
       style="fill:none;stroke:#000000;stroke-width:0.850394;stroke-linecap:round;stroke-linejoin:round"
       d="m 366.406,658.707 v 53.615"
       id="path33" />
    <path
       style="fill:none;stroke:#000000;stroke-width:0.850394;stroke-linecap:round;stroke-linejoin:round"
       d="m 366.406,658.707 8.936,8.936"
       id="path34" />
    <path
       style="fill:none;stroke:#000000;stroke-width:0.850394;stroke-linecap:round;stroke-linejoin:round"
       d="M 375.342,667.643 H 571.928"
       id="path35" />
    <path
       style="fill:none;stroke:#000000;stroke-width:0.850394;stroke-linecap:round;stroke-linejoin:round"
       d="m 375.342,667.643 v 44.679"
       id="path36" />
    <path
       style="fill:none;stroke:#000000;stroke-width:0.850394;stroke-linecap:round;stroke-linejoin:round"
       d="m 571.928,667.643 8.936,-8.936"
       id="path37" />
    <path
       style="fill:none;stroke:#000000;stroke-width:0.850394;stroke-linecap:round;stroke-linejoin:round"
       d="M 580.864,658.707 H 652.35"
       id="path38" />
    <path
       style="fill:none;stroke:#000000;stroke-width:0.850394;stroke-linecap:round;stroke-linejoin:round"
       d="m 652.35,658.707 v 8.936"
       id="path39" />
    <path
       style="fill:none;stroke:#000000;stroke-width:0.850394;stroke-linecap:round;stroke-linejoin:round"
       d="m 652.35,667.643 h 125.1"
       id="path40" />
    <path
       style="fill:none;stroke:#000000;stroke-width:0.850394;stroke-linecap:round;stroke-linejoin:round"
       d="M 777.45,667.643 H 840"
       id="path41" />
    <path
       style="fill:none;stroke:#000000;stroke-width:0.850394;stroke-linecap:round;stroke-linejoin:round"
       d="M 777.45,757 H 840"
       id="path42" />
    <path
       style="fill:none;stroke:#000000;stroke-width:0.850394;stroke-linecap:round;stroke-linejoin:round"
       d="M 777.45,667.643 V 421.911"
       id="path43" />
    <path
       style="fill:none;stroke:#000000;stroke-width:0.850394;stroke-linecap:round;stroke-linejoin:round"
       d="M 652.35,667.643 H 571.928"
       id="path44" />
    <path
       style="fill:none;stroke:#000000;stroke-width:0.850394;stroke-linecap:round;stroke-linejoin:round"
       d="m 571.928,667.643 v 44.679"
       id="path45" />
    <path
       style="fill:none;stroke:#000000;stroke-width:0.850394;stroke-linecap:round;stroke-linejoin:round"
       d="M 285.985,622.964 H 679.157"
       id="path46" />
    <path
       style="fill:none;stroke:#000000;stroke-width:0.850394;stroke-linecap:round;stroke-linejoin:round"
       d="m 679.157,622.964 v 40.211"
       id="path47" />
    <path
       style="fill:none;stroke:#000000;stroke-width:0.850394;stroke-linecap:round;stroke-linejoin:round"
       d="m 679.157,663.175 -4.468,4.468"
       id="path48" />
    <path
       style="fill:none;stroke:#000000;stroke-width:0.850394;stroke-linecap:round;stroke-linejoin:round"
       d="m 679.157,645.304 h 89.357"
       id="path49" />
    <path
       style="fill:none;stroke:#000000;stroke-width:0.850394;stroke-linecap:round;stroke-linejoin:round"
       d="m 768.514,645.304 8.936,-5.159"
       id="path50" />
    <path
       style="fill:none;stroke:#000000;stroke-width:0.850394;stroke-linecap:round;stroke-linejoin:round"
       d="m 768.514,645.304 v 22.339"
       id="path51" />
    <path
       style="fill:none;stroke:#000000;stroke-width:0.850394;stroke-linecap:round;stroke-linejoin:round"
       d="m 285.985,765.936 h 80.421"
       id="path52" />
    <path
       style="fill:none;stroke:#000000;stroke-width:0.850394;stroke-linecap:round;stroke-linejoin:round"
       d="M 366.406,765.936 V 712.322"
       id="path53" />
    <path
       style="fill:none;stroke:#000000;stroke-width:0.850394;stroke-linecap:round;stroke-linejoin:round"
       d="M 366.406,765.936 375.342,757"
       id="path54" />
    <path
       style="fill:none;stroke:#000000;stroke-width:0.850394;stroke-linecap:round;stroke-linejoin:round"
       d="M 375.342,757 H 571.928"
       id="path55" />
    <path
       style="fill:none;stroke:#000000;stroke-width:0.850394;stroke-linecap:round;stroke-linejoin:round"
       d="M 375.342,757 V 712.322"
       id="path56" />
    <path
       style="fill:none;stroke:#000000;stroke-width:0.850394;stroke-linecap:round;stroke-linejoin:round"
       d="m 571.928,757 8.936,8.936"
       id="path57" />
    <path
       style="fill:none;stroke:#000000;stroke-width:0.850394;stroke-linecap:round;stroke-linejoin:round"
       d="M 580.864,765.936 H 652.35"
       id="path58" />
    <path
       style="fill:none;stroke:#000000;stroke-width:0.850394;stroke-linecap:round;stroke-linejoin:round"
       d="M 652.35,765.936 V 757"
       id="path59" />
    <path
       style="fill:none;stroke:#000000;stroke-width:0.850394;stroke-linecap:round;stroke-linejoin:round"
       d="m 652.35,757 h 125.1"
       id="path60" />
    <path
       style="fill:none;stroke:#000000;stroke-width:0.850394;stroke-linecap:round;stroke-linejoin:round"
       d="M 652.35,757 H 571.928"
       id="path61" />
    <path
       style="fill:none;stroke:#000000;stroke-width:0.850394;stroke-linecap:round;stroke-linejoin:round"
       d="M 571.928,757 V 712.322"
       id="path62" />
    <path
       style="fill:none;stroke:#000000;stroke-width:0.850394;stroke-linecap:round;stroke-linejoin:round"
       d="M 285.985,801.679 H 679.157"
       id="path63" />
    <path
       style="fill:none;stroke:#000000;stroke-width:0.850394;stroke-linecap:round;stroke-linejoin:round"
       d="M 679.157,801.679 V 761.468"
       id="path64" />
    <path
       style="fill:none;stroke:#000000;stroke-width:0.850394;stroke-linecap:round;stroke-linejoin:round"
       d="M 679.157,761.468 674.689,757"
       id="path65" />
    <path
       style="fill:none;stroke:#000000;stroke-width:0.850394;stroke-linecap:round;stroke-linejoin:round"
       d="m 679.157,779.34 h 89.357"
       id="path66" />
    <path
       style="fill:none;stroke:#000000;stroke-width:0.850394;stroke-linecap:round;stroke-linejoin:round"
       d="m 768.514,779.34 8.936,5.159"
       id="path67" />
    <path
       style="fill:none;stroke:#000000;stroke-width:0.850394;stroke-linecap:round;stroke-linejoin:round"
       d="M 768.514,779.34 V 757"
       id="path68" />
    <path
       style="fill:none;stroke:#000000;stroke-width:0.850394;stroke-linecap:round;stroke-linejoin:round"
       d="m 285.985,669.43 h 80.421"
       id="path69" />
    <path
       style="fill:none;stroke:#000000;stroke-width:0.850394;stroke-linecap:round;stroke-linejoin:round"
       d="m 285.985,730.193 h 80.421"
       id="path70" />
    <path
       style="fill:none;stroke:#000000;stroke-width:0.850394;stroke-linecap:round;stroke-linejoin:round"
       d="m 786.386,667.643 c -5.5,8.838 -8.381,20.093 -4.561,29.188 3.821,9.096 14.343,16.032 16.57,26.529 2.226,10.498 -3.844,24.557 -12.009,33.64"
       id="path71" />
  </g>
  <circle
     style="fill:#000000;stroke-width:0.153495"
     id="front_cover_point"
     cx="0.14173229"
     cy="420.83014"
     r="0.14173229" />
  <ellipse
     style="fill:#000000;stroke-width:0.075"
     id="path73"
     cx="0.088615611"
     cy="420.84433"
     rx="0.085748546"
     ry="0.014181632" />
</svg>
