<?xml version="1.0" encoding="UTF-8" standalone="no"?>
<!-- Created with sK1/UniConvertor (http://sk1project.org/) -->

<svg
   width="554.38pt"
   height="840.89001pt"
   viewBox="0 0 554.38 840.89"
   fill-rule="evenodd"
   version="1.1"
   id="svg68"
   sodipodi:docname="rear_cover.svg"
   inkscape:version="1.3.2 (091e20e, 2023-11-25, custom)"
   xmlns:inkscape="http://www.inkscape.org/namespaces/inkscape"
   xmlns:sodipodi="http://sodipodi.sourceforge.net/DTD/sodipodi-0.dtd"
   xmlns="http://www.w3.org/2000/svg"
   xmlns:svg="http://www.w3.org/2000/svg">
  <defs
     id="defs68" />
  <sodipodi:namedview
     id="namedview68"
     pagecolor="#ffffff"
     bordercolor="#000000"
     borderopacity="0.25"
     inkscape:showpageshadow="2"
     inkscape:pageopacity="0.0"
     inkscape:pagecheckerboard="0"
     inkscape:deskcolor="#d1d1d1"
     inkscape:document-units="pt"
     inkscape:zoom="45.254834"
     inkscape:cx="3.9774756"
     inkscape:cy="116.72786"
     inkscape:window-width="1536"
     inkscape:window-height="793"
     inkscape:window-x="149"
     inkscape:window-y="1072"
     inkscape:window-maximized="1"
     inkscape:current-layer="svg68" />
  <g
     id="g68"
     transform="translate(-0.07480299,-1.464573)">
    <path
       style="fill:none;stroke:#000000;stroke-width:0.850394;stroke-linecap:round;stroke-linejoin:round"
       d="M 554.043,153.805 V 1.88977"
       id="path1" />
    <path
       style="fill:none;stroke:#000000;stroke-width:0.850394;stroke-linecap:round;stroke-linejoin:round"
       d="M 554.043,1.88977 H 62.5532"
       id="path2" />
    <path
       style="fill:none;stroke:#000000;stroke-width:0.850394;stroke-linecap:round;stroke-linejoin:round"
       d="M 62.5532,1.88977 V 421.89"
       id="path3" />
    <path
       style="fill:none;stroke:#000000;stroke-width:0.850394;stroke-linecap:round;stroke-linejoin:round"
       d="M 554.043,153.805 V 421.89"
       id="path4" />
    <path
       style="fill:none;stroke:#000000;stroke-width:0.850394;stroke-linecap:round;stroke-linejoin:round"
       d="M 554.043,37.6345 H 62.5532"
       id="path5" />
    <path
       style="fill:none;stroke:#000000;stroke-width:0.850394;stroke-linecap:round;stroke-linejoin:round"
       d="M 554.043,689.975 V 841.89"
       id="path6" />
    <path
       style="fill:none;stroke:#000000;stroke-width:0.850394;stroke-linecap:round;stroke-linejoin:round"
       d="M 554.043,841.89 H 62.5532"
       id="path7" />
    <path
       style="fill:none;stroke:#000000;stroke-width:0.850394;stroke-linecap:round;stroke-linejoin:round"
       d="M 554.043,689.975 V 421.89"
       id="path8" />
    <path
       style="fill:none;stroke:#000000;stroke-width:0.850394;stroke-linecap:round;stroke-linejoin:round"
       d="m 222.323,266.841 22.004,21.774"
       id="path9" />
    <path
       style="fill:none;stroke:#000000;stroke-width:0.850394;stroke-linecap:round;stroke-linejoin:round"
       d="m 244.327,288.615 -7.855,29.942"
       id="path10" />
    <path
       style="fill:none;stroke:#000000;stroke-width:0.850394;stroke-linecap:round;stroke-linejoin:round"
       d="m 236.472,318.557 -29.859,8.169"
       id="path11" />
    <path
       style="fill:none;stroke:#000000;stroke-width:0.850394;stroke-linecap:round;stroke-linejoin:round"
       d="M 206.613,326.726 184.61,304.952"
       id="path12" />
    <path
       style="fill:none;stroke:#000000;stroke-width:0.850394;stroke-linecap:round;stroke-linejoin:round"
       d="m 184.61,304.952 7.854,-29.942"
       id="path13" />
    <path
       style="fill:none;stroke:#000000;stroke-width:0.850394;stroke-linecap:round;stroke-linejoin:round"
       d="m 192.464,275.01 29.859,-8.169"
       id="path14" />
    <path
       style="fill:none;stroke:#000000;stroke-width:0.850394;stroke-linecap:round;stroke-linejoin:round"
       d="m 254.681,296.783 c 0,-22.196 -18.017,-40.212 -40.213,-40.212 -22.196,0 -40.213,18.016 -40.213,40.212 0,22.197 18.017,40.213 40.213,40.213 22.196,0 40.213,-18.016 40.213,-40.213 z"
       id="path15" />
    <path
       style="fill:none;stroke:#000000;stroke-width:0.850394;stroke-linecap:round;stroke-linejoin:round"
       d="m 281.015,296.783 c 0,-36.731 -29.815,-66.546 -66.547,-66.546 -36.732,0 -66.546,29.815 -66.546,66.546 0,36.732 29.814,66.547 66.546,66.547 36.732,0 66.547,-29.815 66.547,-66.547 z"
       id="path16" />
    <path
       style="fill:none;stroke:#000000;stroke-width:0.850394;stroke-linecap:round;stroke-linejoin:round"
       d="m 299.362,296.783 c 0,-46.858 -38.035,-84.893 -84.894,-84.893 -46.859,0 -84.894,38.035 -84.894,84.893 0,46.859 38.035,84.894 84.894,84.894 46.859,0 84.894,-38.035 84.894,-84.894 z"
       id="path17" />
    <path
       style="fill:none;stroke:#000000;stroke-width:0.850394;stroke-linecap:round;stroke-linejoin:round"
       d="m 366.383,493.379 c 0,-29.595 -24.022,-53.617 -53.617,-53.617 -29.595,0 -53.617,24.022 -53.617,53.617 0,29.595 24.022,53.617 53.617,53.617 29.595,0 53.617,-24.022 53.617,-53.617 z"
       id="path18" />
    <path
       style="fill:none;stroke:#000000;stroke-width:0.850394;stroke-linecap:round;stroke-linejoin:round"
       d="m 393.191,493.379 c 0,-44.392 -36.033,-80.425 -80.425,-80.425 -44.393,0 -80.426,36.033 -80.426,80.425 0,44.393 36.033,80.426 80.426,80.426 44.392,0 80.425,-36.033 80.425,-80.426 z"
       id="path19" />
    <path
       style="fill:none;stroke:#000000;stroke-width:0.850394;stroke-linecap:round;stroke-linejoin:round"
       d="M 330.638,442.829 V 543.93"
       id="path20" />
    <path
       style="fill:none;stroke:#000000;stroke-width:0.850394;stroke-linecap:round;stroke-linejoin:round"
       d="M 62.5532,582.741 H 554.043"
       id="path21" />
    <path
       style="fill:none;stroke:#000000;stroke-width:0.850394;stroke-linecap:round;stroke-linejoin:round"
       d="M 62.5532,841.89 V 756.996"
       id="path22" />
    <path
       style="fill:none;stroke:#000000;stroke-width:0.850394;stroke-linecap:round;stroke-linejoin:round"
       d="M 17.8723,86.7834 H 0"
       id="path23" />
    <path
       style="fill:none;stroke:#000000;stroke-width:0.850394;stroke-linecap:round;stroke-linejoin:round"
       d="M 0,176.145 H 17.8723"
       id="path24" />
    <path
       style="fill:none;stroke:#000000;stroke-width:0.850394;stroke-linecap:round;stroke-linejoin:round"
       d="M 554.043,658.698 H 473.617"
       id="path25" />
    <path
       style="fill:none;stroke:#000000;stroke-width:0.850394;stroke-linecap:round;stroke-linejoin:round"
       d="m 473.617,658.698 v 53.617"
       id="path26" />
    <path
       style="fill:none;stroke:#000000;stroke-width:0.850394;stroke-linecap:round;stroke-linejoin:round"
       d="m 473.617,658.698 -8.936,8.936"
       id="path27" />
    <path
       style="fill:none;stroke:#000000;stroke-width:0.850394;stroke-linecap:round;stroke-linejoin:round"
       d="M 464.681,667.634 H 268.085"
       id="path28" />
    <path
       style="fill:none;stroke:#000000;stroke-width:0.850394;stroke-linecap:round;stroke-linejoin:round"
       d="m 464.681,667.634 v 44.681"
       id="path29" />
    <path
       style="fill:none;stroke:#000000;stroke-width:0.850394;stroke-linecap:round;stroke-linejoin:round"
       d="m 268.085,667.634 -8.936,-8.936"
       id="path30" />
    <path
       style="fill:none;stroke:#000000;stroke-width:0.850394;stroke-linecap:round;stroke-linejoin:round"
       d="M 259.149,658.698 H 187.66"
       id="path31" />
    <path
       style="fill:none;stroke:#000000;stroke-width:0.850394;stroke-linecap:round;stroke-linejoin:round"
       d="m 187.66,658.698 v 8.936"
       id="path32" />
    <path
       style="fill:none;stroke:#000000;stroke-width:0.850394;stroke-linecap:round;stroke-linejoin:round"
       d="M 187.66,667.634 H 62.5532"
       id="path33" />
    <path
       style="fill:none;stroke:#000000;stroke-width:0.850394;stroke-linecap:round;stroke-linejoin:round"
       d="M 62.5532,667.634 H 0"
       id="path34" />
    <path
       style="fill:none;stroke:#000000;stroke-width:0.850394;stroke-linecap:round;stroke-linejoin:round"
       d="M 62.5532,756.996 H 0"
       id="path35" />
    <path
       style="fill:none;stroke:#000000;stroke-width:0.850394;stroke-linecap:round;stroke-linejoin:round"
       d="M 62.5532,667.634 V 421.89"
       id="path36" />
    <path
       style="fill:none;stroke:#000000;stroke-width:0.850394;stroke-linecap:round;stroke-linejoin:round"
       d="m 187.66,667.634 h 80.425"
       id="path37" />
    <path
       style="fill:none;stroke:#000000;stroke-width:0.850394;stroke-linecap:round;stroke-linejoin:round"
       d="m 268.085,667.634 v 44.681"
       id="path38" />
    <path
       style="fill:none;stroke:#000000;stroke-width:0.850394;stroke-linecap:round;stroke-linejoin:round"
       d="M 554.043,622.954 H 160.851"
       id="path39" />
    <path
       style="fill:none;stroke:#000000;stroke-width:0.850394;stroke-linecap:round;stroke-linejoin:round"
       d="m 160.851,622.954 v 40.212"
       id="path40" />
    <path
       style="fill:none;stroke:#000000;stroke-width:0.850394;stroke-linecap:round;stroke-linejoin:round"
       d="m 160.851,663.166 4.468,4.468"
       id="path41" />
    <path
       style="fill:none;stroke:#000000;stroke-width:0.850394;stroke-linecap:round;stroke-linejoin:round"
       d="M 160.851,645.294 H 71.4894"
       id="path42" />
    <path
       style="fill:none;stroke:#000000;stroke-width:0.850394;stroke-linecap:round;stroke-linejoin:round"
       d="m 71.4894,645.294 -8.9362,-5.159"
       id="path43" />
    <path
       style="fill:none;stroke:#000000;stroke-width:0.850394;stroke-linecap:round;stroke-linejoin:round"
       d="m 71.4894,645.294 v 22.34"
       id="path44" />
    <path
       style="fill:none;stroke:#000000;stroke-width:0.850394;stroke-linecap:round;stroke-linejoin:round"
       d="M 554.043,765.932 H 473.617"
       id="path45" />
    <path
       style="fill:none;stroke:#000000;stroke-width:0.850394;stroke-linecap:round;stroke-linejoin:round"
       d="M 473.617,765.932 V 712.315"
       id="path46" />
    <path
       style="fill:none;stroke:#000000;stroke-width:0.850394;stroke-linecap:round;stroke-linejoin:round"
       d="m 473.617,765.932 -8.936,-8.936"
       id="path47" />
    <path
       style="fill:none;stroke:#000000;stroke-width:0.850394;stroke-linecap:round;stroke-linejoin:round"
       d="M 464.681,756.996 H 268.085"
       id="path48" />
    <path
       style="fill:none;stroke:#000000;stroke-width:0.850394;stroke-linecap:round;stroke-linejoin:round"
       d="M 464.681,756.996 V 712.315"
       id="path49" />
    <path
       style="fill:none;stroke:#000000;stroke-width:0.850394;stroke-linecap:round;stroke-linejoin:round"
       d="m 268.085,756.996 -8.936,8.936"
       id="path50" />
    <path
       style="fill:none;stroke:#000000;stroke-width:0.850394;stroke-linecap:round;stroke-linejoin:round"
       d="M 259.149,765.932 H 187.66"
       id="path51" />
    <path
       style="fill:none;stroke:#000000;stroke-width:0.850394;stroke-linecap:round;stroke-linejoin:round"
       d="m 187.66,765.932 v -8.936"
       id="path52" />
    <path
       style="fill:none;stroke:#000000;stroke-width:0.850394;stroke-linecap:round;stroke-linejoin:round"
       d="M 187.66,756.996 H 62.5532"
       id="path53" />
    <path
       style="fill:none;stroke:#000000;stroke-width:0.850394;stroke-linecap:round;stroke-linejoin:round"
       d="m 187.66,756.996 h 80.425"
       id="path54" />
    <path
       style="fill:none;stroke:#000000;stroke-width:0.850394;stroke-linecap:round;stroke-linejoin:round"
       d="M 268.085,756.996 V 712.315"
       id="path55" />
    <path
       style="fill:none;stroke:#000000;stroke-width:0.850394;stroke-linecap:round;stroke-linejoin:round"
       d="M 554.043,801.677 H 160.851"
       id="path56" />
    <path
       style="fill:none;stroke:#000000;stroke-width:0.850394;stroke-linecap:round;stroke-linejoin:round"
       d="M 160.851,801.677 V 761.464"
       id="path57" />
    <path
       style="fill:none;stroke:#000000;stroke-width:0.850394;stroke-linecap:round;stroke-linejoin:round"
       d="m 160.851,761.464 4.468,-4.468"
       id="path58" />
    <path
       style="fill:none;stroke:#000000;stroke-width:0.850394;stroke-linecap:round;stroke-linejoin:round"
       d="M 160.851,779.337 H 71.4894"
       id="path59" />
    <path
       style="fill:none;stroke:#000000;stroke-width:0.850394;stroke-linecap:round;stroke-linejoin:round"
       d="m 71.4894,779.337 -8.9362,5.159"
       id="path60" />
    <path
       style="fill:none;stroke:#000000;stroke-width:0.850394;stroke-linecap:round;stroke-linejoin:round"
       d="M 71.4894,779.337 V 756.996"
       id="path61" />
    <path
       style="fill:none;stroke:#000000;stroke-width:0.850394;stroke-linecap:round;stroke-linejoin:round"
       d="M 554.043,669.422 H 473.617"
       id="path62" />
    <path
       style="fill:none;stroke:#000000;stroke-width:0.850394;stroke-linecap:round;stroke-linejoin:round"
       d="M 554.043,730.188 H 473.617"
       id="path63" />
    <path
       style="fill:none;stroke:#000000;stroke-width:0.850394;stroke-linecap:round;stroke-linejoin:round"
       d="m 53.495,756.996 c 5.381,-8.93 8.1013,-20.221 4.1516,-29.261 -3.9497,-9.039 -14.5693,-15.827 -16.9439,-26.293 -2.3746,-10.465 3.4958,-24.608 11.5326,-33.808"
       id="path64" />
    <path
       style="fill:none;stroke:#000000;stroke-width:0.850394;stroke-linecap:round;stroke-linejoin:round"
       d="M 62.5532,77.8472 H 17.8723"
       id="path65" />
    <path
       style="fill:none;stroke:#000000;stroke-width:0.850394;stroke-linecap:round;stroke-linejoin:round"
       d="m 17.8723,176.145 v 8.936"
       id="path66" />
    <path
       style="fill:none;stroke:#000000;stroke-width:0.850394;stroke-linecap:round;stroke-linejoin:round"
       d="M 17.8723,185.081 H 62.5532"
       id="path67" />
    <path
       style="fill:none;stroke:#000000;stroke-width:0.850394;stroke-linecap:round;stroke-linejoin:round"
       d="M 17.8723,176.145 V 77.8472"
       id="path68" />
  </g>
</svg>
