<?xml version="1.0" encoding="UTF-8" standalone="no"?>
<svg
   version="1.0"
   width="4424.000000pt"
   height="4628.000000pt"
   viewBox="0 0 4424.000000 4628.000000"
   preserveAspectRatio="xMidYMid meet"
   id="svg33"
   sodipodi:docname="rod-with-dimensions.svg"
   inkscape:version="1.3.2 (091e20e, 2023-11-25, custom)"
   xmlns:inkscape="http://www.inkscape.org/namespaces/inkscape"
   xmlns:sodipodi="http://sodipodi.sourceforge.net/DTD/sodipodi-0.dtd"
   xmlns="http://www.w3.org/2000/svg"
   xmlns:svg="http://www.w3.org/2000/svg">
  <defs
     id="defs33">
    <clipPath
       clipPathUnits="userSpaceOnUse"
       id="clipPath122">
      <path
         id="path123"
         style="fill:#ff0000;fill-opacity:1;fill-rule:nonzero;stroke:none;stroke-width:7.5"
         d="M 11.25,46269.995 V 1.25 H 44239.995 V 46269.995 Z M 38626.978,30689.8 c 45.191,1.85 82.889,-24.808 96.855,-69.668 16.436,4.744 33.07,7.625 51.328,6.445 8.893,-0.578 17.576,-2.932 26.367,-4.394 25.727,-20.738 52.448,-40.299 77.183,-62.212 2.876,-2.548 3.446,-6.882 4.849,-10.459 3.516,-8.965 6.19,-17.826 8.364,-27.129 4.191,-20.981 2.382,-11.755 2.607,-12.188 1.537,0.472 3.052,1.008 4.6,1.451 18.169,5.468 36.534,10.367 55.386,12.846 7.867,0.42 15.724,0.985 23.598,1.275 13.049,0.487 26.682,-2.446 39.346,-4.966 12.876,-4.24 18.471,-5.974 29.092,-11.001 -0.727,0.345 -1.458,0.675 -2.183,1.025 0.743,-0.338 1.497,-0.675 2.241,-1.011 0.202,-0.1 0.776,-0.368 0.57,-0.278 -0.248,0.12 -0.39,0.15 -0.63,0.263 1.472,-0.69 2.953,-1.374 4.423,-2.067 6.471,-3.534 12.027,-7.658 17.798,-11.601 5.445,-2.549 11.263,-8.453 16.846,-11.924 3.921,-0.232 7.847,-0.555 11.865,-0.85 2.622,-0.54 5.349,-0.697 7.866,-1.611 8.07,-2.906 16.073,-6.044 23.79,-9.785 6.69,-3.241 15.834,-11.817 20.595,-16.537 0.766,-0.759 1.448,-1.605 2.139,-2.433 0.21,-0.255 0.45,-0.48 0.66,-0.735 v 0 c 1.827,-1.907 2.781,-2.868 4.102,-4.365 3.26,-3.696 5.513,-7.277 7.983,-11.235 0.157,-0.225 0.27,-0.397 0.427,-0.63 1.247,-1.823 2.488,-3.701 3.34,-5.331 1.741,-3.339 3.316,-6.761 4.98,-10.137 2.436,-5.613 4.07,-11.46 5.259,-17.403 0.322,-0.322 0.87,-0.839 1.055,-1.041 0.308,-0.33 0.593,-0.69 0.893,-1.025 1.636,-1.575 3.421,-3.325 4.146,-3.97 0.33,-0.39 0.652,-0.789 0.981,-1.185 4.394,-3.939 8.431,-8.244 11.997,-13.068 0.345,-0.39 0.675,-0.779 1.011,-1.17 0.464,-0.548 0.916,-1.107 1.377,-1.656 1.667,-1.86 3.328,-3.707 4.995,-5.567 0.187,-0.202 -4.007,4.475 -2.08,2.285 5.586,-6.348 5.088,-5.823 6.665,-8.07 0.08,-0.07 0.158,-0.143 0.233,-0.218 3.762,-3.895 7.284,-8.038 10.416,-12.466 0,-0.08 0.08,-0.08 0.127,-0.12 1.61,-2.076 3.161,-4.031 4.688,-6.006 3.381,-3.555 6.591,-7.257 9.243,-11.426 0.12,-0.18 0.233,-0.36 0.353,-0.54 0.135,-0.195 0.307,-0.375 0.442,-0.57 0.188,-0.27 0.458,-0.712 0.675,-1.039 3.354,-3.89 5.129,-6.228 4.482,-5.948 3.162,-4.414 3.563,-4.951 4.131,-5.917 0.225,-0.285 0.45,-0.548 0.909,-1.143 0.45,-0.585 1.848,-2.322 1.347,-1.773 0.27,-0.315 0.533,-0.622 0.807,-0.938 3.717,-4.434 7.343,-8.944 10.649,-13.696 -1.196,1.353 0.555,-0.792 0.879,-1.172 3.022,-3.627 1.777,-1.995 5.244,-6.372 0.637,-0.801 1.255,-1.621 1.875,-2.431 4.696,-6.306 9.175,-12.773 13.549,-19.307 7.326,-11.763 14.148,-23.926 17.769,-37.426 19.986,-74.489 -2.641,-124.581 -37.617,-141.798 -0.263,-2.769 -0.285,-5.561 -0.645,-8.319 -1.566,-10.706 -3.555,-21.318 -6.241,-31.803 -3.399,-12.816 -7.162,-25.58 -12.789,-37.632 -5.986,-13.035 -11.997,-26.159 -20.463,-37.836 -4.281,-6.047 -8.433,-12.191 -12.714,-18.237 -7.624,-10.059 -7.6,-9.945 -14.722,-18.81 7.314,-16.692 9.619,-38.4 1.377,-65.903 8.413,-7.474 1.888,-24.378 -5.45,-40.297 2.271,-7.052 3.168,-15.741 2.007,-26.075 -0.442,-3.928 -1.185,-7.876 -2.505,-11.616 -0.472,-1.348 -0.999,-2.677 -1.509,-4.014 -1.92,-4.518 -4.323,-8.803 -6.796,-13.036 -1.88,-3.368 -4.125,-6.516 -6.227,-9.741 -0.172,-0.263 -0.345,-0.533 -0.51,-0.792 -0.98,-1.509 -1.962,-2.981 -3.047,-4.424 -1.051,-1.398 -1.768,-2.029 -1.187,-1.509 -1.283,-1.846 -2.682,-3.588 -4.043,-5.376 -0.675,-0.985 -1.48,-1.914 -2.08,-2.944 -0.767,-1.19 -1.632,-2.301 -2.49,-3.428 -0.428,-0.793 -1.049,-1.611 -1.523,-2.314 -1.316,-2.028 -2.915,-3.828 -4.556,-5.58 -0.397,-0.533 -0.775,-1.074 -1.187,-1.598 0,0 -0.08,-0.105 -0.128,-0.157 -0.08,-0.08 -0.12,-0.165 -0.195,-0.248 -0.08,-0.08 -0.1,-0.12 -0.12,-0.15 -0.217,-0.285 -0.09,-0.135 -1.068,-1.391 -0.08,-0.09 0.135,0.18 0.232,0.277 -0.777,-1.084 -1.605,-2.132 -2.446,-3.164 0.08,0.08 -0.09,-0.105 -0.09,-0.09 0.307,0.405 -0.375,-0.532 -0.465,-0.63 -0.1,-0.142 0.24,0.285 0.337,0.428 0.39,0.54 -0.776,-1.105 -1.157,-1.655 -1.563,-2.072 -1.687,-2.243 -2.842,-3.765 -0.21,-0.27 -0.42,-0.547 -0.63,-0.806 -0.675,-0.846 -1.384,-1.671 -2.095,-2.49 -0.18,-0.21 -0.66,-0.87 -0.54,-0.63 0.12,0.247 0.375,0.42 0.555,0.63 0.345,0.412 0.218,0.292 -0.705,-0.864 -0.645,-0.809 -1.305,-1.586 -1.977,-2.373 -0.585,-0.755 -1.195,-1.492 -1.801,-2.227 1.485,2.004 -1.493,-2.179 -1.641,-2.387 -1.158,-1.646 -2.426,-3.211 -3.707,-4.761 -0.804,-1.084 -1.644,-2.134 -2.548,-3.135 0,0 -0.158,-0.218 -0.203,-0.278 -0.375,-0.502 -1.495,-1.926 -1.771,-2.271 l -0.57,-0.69 c -0.488,-0.577 -0.995,-1.124 -1.494,-1.685 0.1,0.1 -0.113,-0.135 -0.158,-0.202 -0.08,-0.09 -0.135,-0.143 -0.202,-0.233 v -0.09 c -1.02,-1.268 -2.075,-2.495 -3.164,-3.706 -1.128,-1.287 -2.35,-2.486 -3.604,-3.648 -0.195,-0.24 -0.383,-0.473 -0.57,-0.72 -0.927,-1.143 -1.926,-2.236 -2.915,-3.326 0.812,1.162 2.466,3.552 -0.762,-1.098 -0.08,-0.08 -0.07,-0.1 -0.12,-0.15 0.08,0.1 0.307,0.435 0.202,0.323 -0.675,-0.921 -0.555,-0.713 -0.775,-1.011 0,0 -0.07,-0.09 -0.09,-0.12 -0.458,-0.63 -0.593,-0.868 -1.904,-2.491 -0.1,-0.128 0.225,0.247 0.338,0.382 l 0.12,0.105 c -0.518,-0.712 -3.684,-4.713 -1.071,-1.347 0.293,0.427 -0.142,-0.195 -0.105,-0.143 0.27,0.383 -0.51,-0.781 -0.762,-1.171 -0.172,-0.24 -0.307,-0.51 -0.465,-0.75 -0.48,-0.713 -0.995,-1.425 -1.494,-2.124 -0.3,-0.413 -0.247,-0.353 -0.292,-0.413 -0.51,-0.894 -0.999,-1.812 -1.582,-2.696 -1.27,-1.9 -2.678,-3.697 -4.072,-5.508 -0.652,-0.819 -1.267,-1.663 -1.89,-2.504 l -0.15,-0.165 c -0.953,-1.481 -2.034,-2.875 -3.075,-4.292 -1.308,-1.833 -2.717,-3.588 -4.176,-5.302 -1.08,-1.287 -2.201,-2.539 -3.267,-3.838 -1.013,-1.305 -2.096,-2.565 -3.075,-3.897 -1.715,-2.346 -3.687,-4.459 -5.714,-6.533 -0.217,-0.217 -0.892,-0.902 -0.675,-0.675 2.138,2.268 -0.69,-1.173 -0.791,-1.302 -1.294,-1.704 -2.696,-3.327 -4.101,-4.938 -0.225,-0.322 -0.443,-0.652 -0.675,-0.966 -0.728,-1.005 -1.381,-1.689 -0.952,-1.23 -1.278,-1.635 -1.459,-1.892 -2.564,-3.341 -1.091,-1.437 -2.348,-3.055 -3.603,-4.57 -1.797,-2.316 0.959,1.414 -1.333,-1.817 -1.311,-1.83 -2.741,-3.577 -4.219,-5.272 -0.442,-0.495 -0.592,-0.66 -0.893,-0.983 -1.377,-1.845 -2.828,-3.625 -4.292,-5.404 -1.876,-2.295 -3.878,-4.485 -5.948,-6.606 -2.533,-2.349 -1.034,-1.008 -0.442,-0.428 16.017,15.935 7.801,19.604 -6.431,20.317 -0.322,-0.33 -0.637,-0.66 -0.952,-0.996 -1.86,-1.988 -3.645,-4.05 -5.493,-6.05 -2.1,-2.26 -4.248,-4.471 -6.401,-6.679 -1.182,-1.251 -2.389,-2.498 -3.487,-3.824 -0.143,-0.18 -0.285,-0.345 -0.443,-0.51 -36.494,-43.737 -80.343,-10.49 -51.446,32.212 -3.423,0 -6.856,0 -10.282,-0.12 -0.75,-0.217 -2.001,-0.57 -2.301,-0.66 -7.1,-1.689 -14.184,-3.577 -21.504,-4.087 -2.699,-0.157 -5.397,-0.345 -8.1,-0.457 -7.587,-0.27 -15.177,0.615 -22.704,1.392 -8.106,0.987 -16.182,2.107 -24.273,3.178 -12.006,1.569 -24.09,2.705 -35.933,5.333 -11.698,2.307 -23.361,4.852 -35.098,6.958 -5.079,-0.819 -10.092,-2.05 -15.219,-2.491 -10.788,-0.927 -21.62,-1.586 -32.447,-1.685 h -27.787 c -7.224,0 -14.444,0.08 -21.666,0.188 -9.522,0.232 -19.041,0.525 -28.55,1.113 -11.067,0.697 -22.125,1.603 -33.135,2.944 -9.07,1.334 -17.995,3.398 -26.512,6.87 -6.171,2.295 -12.288,4.883 -18.693,6.446 -7.989,2.01 -15.942,4.161 -23.525,7.441 -8.473,3.231 -17.011,6.294 -25.459,9.594 -10.509,3.828 -21.107,7.41 -31.611,11.25 -10.926,4.236 -21.764,8.708 -32.315,13.815 -9.427,4.478 -18.904,8.855 -27.817,14.325 -7.127,4.149 -14.216,8.376 -21.255,12.672 -6.345,3.87 -12.666,7.719 -18.369,12.524 -5.979,4.728 -11.799,9.676 -17.285,14.971 -3.487,3.378 -6.801,6.927 -10.108,10.458 -4.311,4.146 -8.697,8.208 -12.684,12.672 -4.209,5.205 -7.926,10.725 -11.529,16.362 -3.183,5.148 -6.084,10.482 -9.126,15.717 -4.116,7.557 -7.929,15.285 -11.235,23.232 -3.768,10.254 -6.876,20.892 -6.666,31.935 0.105,5.517 4.62,3.863 5.698,8.276 -1.075,3.537 -1.987,7.18 -2.71,10.927 -0.66,4.137 -1.476,8.25 -1.977,12.408 -2.01,16.842 -0.615,34.08 1.89,50.859 -1.386,5.115 -2.661,10.263 -3.78,15.455 -3.387,15.949 -6.699,32.004 -7.851,48.295 -0.828,13.076 -1.284,26.177 -1.992,39.258 -0.27,11.712 -0.375,23.409 -0.278,35.127 0,11.844 0.12,23.694 0.12,35.538 0.07,12.722 0.09,25.44 0.413,38.159 0.405,13.509 1.057,27.022 2.577,40.459 1.708,14.256 3.948,28.434 6.315,42.597 2.751,16.974 5.805,33.912 10.722,50.42 3.936,14.625 7.419,29.376 12.54,43.653 6.192,18.219 12.969,36.229 20.155,54.082 12.614,30.947 26.054,61.596 41.294,91.347 15.378,29.235 31.747,57.962 49.365,85.913 h -0.135 c 43.959,69.739 96.897,100.344 142.296,102.202 z m 538.066,-253.784 c -0.1,0.157 -0.187,0.247 -0.322,0.457 0.165,-0.262 0.33,-0.51 0.495,-0.777 -0.07,0.105 -0.113,0.218 -0.173,0.323 z m -13.169,16.977 c -3.715,3.946 -0.615,0.705 -2.388,2.52 -0.897,0.92 1.628,-1.761 2.637,-2.813 -0.105,0.127 -0.165,0.195 -0.247,0.292 z m 26.821,-50.215 c 0,0 0,-0.07 0,-0.07 0.861,-0.994 1.72,-1.99 2.592,-2.974 0.07,0 0.09,-0.08 0.135,-0.105 -0.428,0.525 -1.013,1.239 -1.875,2.256 -0.113,0.12 -0.51,0.525 -0.879,0.894 z m 3.457,-3.53 c 0.188,-0.225 0.383,-0.435 0.57,-0.66 0.15,-0.128 0.285,-0.27 0.443,-0.398 -0.07,0.08 -0.07,0.1 -0.12,0.15 -1.16,1.158 -0.08,0.08 -0.894,0.909 z m 1.831,-2.109 c 0.653,-0.772 1.305,-1.545 1.978,-2.3 0.622,-0.698 -0.801,0.981 -1.802,2.168 -0.08,0.07 -0.127,0.09 -0.172,0.135 z m 3.882,-3.794 c 1.453,-1.766 2.897,-3.546 4.395,-5.274 0.924,-1.066 -1.62,2.227 -2.593,3.355 l -0.07,0.08 c -0.577,0.608 -1.165,1.217 -1.728,1.846 z m 22.691,-25.855 c 0.938,-1.3 0.533,-0.852 3.662,-4.951 0.622,-0.815 -1.149,1.699 -1.729,2.549 -9.982,12.728 -2.37,3.088 -1.933,2.402 z m 5.683,-7.104 c 0.769,-0.836 1.552,-1.662 2.329,-2.49 -0.08,0.09 -0.158,0.195 -0.233,0.277 -0.69,0.743 -2.784,2.962 -2.094,2.212 z m 12.656,-15.821 c 0.653,-0.959 1.361,-1.854 1.978,-2.871 0.375,-0.615 -0.759,1.222 -1.186,1.802 -0.457,0.622 -0.442,0.592 -0.792,1.069 z m 2.447,-3.076 c 0,0 1.7,-1.982 2.461,-2.856 -0.157,0.195 -0.285,0.427 -0.442,0.6 -0.66,0.758 -2.681,3.016 -2.021,2.256 z m 6.474,-8.291 c 2.273,-3.592 4.186,-6.705 0.63,-0.864 -0.135,0.195 -0.458,0.622 -0.63,0.864 z m 8.116,-11.133 c 0.668,-1.092 0.39,-0.698 2.373,-3.808 0.72,-1.135 -1.34,2.34 -2.11,3.442 -0.1,0.142 -0.165,0.225 -0.263,0.367 z m -251.704,-82.836 v 0 c 0.07,-0.08 0.135,-0.135 0.202,-0.203 l -0.07,0.105 c -0.07,0.07 -0.09,0.09 -0.127,0.12 z m 12.055,-15.455 c 0,0 0,-0.08 0.07,-0.08 1.023,-1.282 2.097,-2.518 3.165,-3.765 0.33,-0.375 1.331,-1.492 1.011,-1.113 -1.279,1.538 -2.553,3.08 -3.853,4.599 -0.08,0.08 -0.308,0.293 -0.368,0.338 z m 1.026,-0.981 c 1.527,-1.659 3.75,-4.066 2.827,-3.032 -0.727,0.811 -1.211,1.405 -1.89,2.168 -0.27,0.24 -0.735,0.69 -0.937,0.864 z m 14.575,-16.187 v 0 c 0.33,-0.33 0.63,-0.675 0.967,-0.996 0.08,-0.08 0.142,-0.105 0.232,-0.188 -0.502,0.495 -0.42,0.435 -0.937,0.952 -0.09,0.08 -0.173,0.173 -0.263,0.248 z m 107.402,-489.389 c -0.375,-0.405 -0.735,-0.801 -1.113,-1.201 -0.157,-0.173 0.338,0.315 0.495,0.48 0.413,0.487 0.473,0.555 0.615,0.72 z m -20.2,-24.009 c -0.36,-0.66 -0.755,-1.268 -1.113,-1.904 0.262,0.413 0.247,0.383 0.645,1.04 0.172,0.277 0.63,1.155 0.465,0.864 z m 4127.505,-3304.292 c 1.278,0.08 2.781,-0.21 4.468,-0.908 1.263,-0.518 2.672,-0.69 4.013,-0.938 2.452,-0.488 4.92,-0.853 7.412,-1.054 3.414,-0.248 6.832,-0.255 10.254,-0.353 4.428,0 8.858,-0.1 13.286,0 3.583,0.08 7.17,0.15 10.752,0.248 2.713,0 5.431,0 8.145,0.157 3.02,0.15 6.038,0.33 9.053,0.555 2.724,0.24 5.455,0.39 8.188,0.51 2.449,0.15 4.903,0.143 7.354,0.143 h 8.745 c 2.368,0 4.736,0.1 7.104,0 2.475,-0.12 4.951,-0.165 7.427,-0.263 2.219,-0.1 4.432,-0.12 6.65,-0.12 h 5.157 4.511 4.117 1.259 c 9.75,0 9.75,-9.829 0,-9.829 h -1.259 -4.117 -2.182 c 0.128,-0.548 -0.69,-0.887 -1.26,-1.289 h 1.685 1.201 c 3.258,0 2.9,-2.928 0,-3.267 0.72,-1.035 -0.08,-2.54 -2.315,-2.534 h -0.791 -1.113 c -0.518,0 -1.033,0.105 -1.553,0.105 -0.645,0.08 -1.293,0.105 -1.933,0.203 -0.66,0.08 -1.333,0.08 -1.993,0.142 -0.607,0 -1.206,0.135 -1.816,0.135 h -1.802 -1.699 -1.948 -2.359 -0.966 c -0.806,-0.08 -1.612,-0.105 -2.417,-0.105 h -3.15 c -0.413,-0.1 -0.825,-0.105 -1.245,-0.105 h -1.26 -1.479 -2.11 -2.431 -1.465 -1.289 -1.553 -1.992 -1.787 c -0.623,0 -1.24,0 -1.86,-0.135 -0.771,-0.08 -1.545,-0.18 -2.315,-0.18 -0.705,0 -1.395,-0.105 -2.095,-0.105 -0.735,-0.1 -1.467,-0.105 -2.197,-0.105 h -1.948 c -0.502,0.1 -1.009,0.105 -1.509,0.105 -0.607,0.1 -1.221,0.113 -1.831,0.105 h -1.89 c -0.503,0 -0.994,0.105 -1.494,0.105 h -1.67 -2.592 -2.256 -1.758 -2.124 -2.154 -2.08 -1.611 -1.904 c -0.763,0.1 -1.525,0.12 -2.285,0.12 -0.57,0 -1.144,0.135 -1.714,0.135 h -1.48 -1.318 -1.524 -1.376 c -0.54,0.1 -1.086,0.105 -1.626,0.105 -0.63,0 -1.26,0.128 -1.89,0.128 h -2.066 -2.05 -1.817 -1.347 -1.202 -0.878 c -0.263,0 -0.51,-0.128 -0.762,-0.128 -0.323,0 -0.638,-0.15 -0.967,-0.15 -0.405,-0.08 -0.82,-0.142 -1.23,-0.142 -0.382,-0.08 -0.778,-0.135 -1.158,-0.135 -0.375,-0.08 -0.742,-0.158 -1.113,-0.158 -0.352,0 -0.697,-0.105 -1.055,-0.105 h -0.966 -0.923 -1.011 c -0.45,0.1 -0.893,0.105 -1.333,0.105 -0.383,0 -0.767,0.135 -1.157,0.143 -0.532,0.1 -1.067,0.135 -1.597,0.135 -0.72,0.1 -1.433,0.09 -2.153,0.09 h -1.963 -1.421 -1.128 v 0.09 c -2.791,0 -3.324,2.294 -1.597,3.164 -0.368,0.925 -1.71,1.982 -0.338,2.095 0.33,0 0.705,0 1.128,-0.105 0.36,-0.08 0.728,-0.08 1.084,-0.188 0.24,-0.08 0.473,-0.12 0.705,-0.165 -0.367,0.993 -2.037,2.037 0,2.037 h 2.447 c 1.242,0 2.481,0.165 3.72,0.165 -0.735,0.12 -1.479,0.158 -2.211,0.308 -2.1,0.39 -4.235,0.759 -6.197,1.641 -6.982,3.156 -5.53,8.953 -0.442,9.58 z" />
    </clipPath>
  </defs>
  <sodipodi:namedview
     id="namedview33"
     pagecolor="#ffffff"
     bordercolor="#000000"
     borderopacity="0.25"
     inkscape:showpageshadow="2"
     inkscape:pageopacity="0.0"
     inkscape:pagecheckerboard="0"
     inkscape:deskcolor="#d1d1d1"
     inkscape:document-units="pt"
     inkscape:zoom="0.125"
     inkscape:cx="3336"
     inkscape:cy="3500"
     inkscape:window-width="1920"
     inkscape:window-height="1009"
     inkscape:window-x="-8"
     inkscape:window-y="-8"
     inkscape:window-maximized="1"
     inkscape:current-layer="g33" />
  <g
     transform="translate(0.000000,4628.000000) scale(0.100000,-0.100000)"
     fill="#000000"
     stroke="none"
     id="g33">
    <path
       id="path1"
       d="m 42025.005,46269.995 c -8,0 -24.01,-8.995 -35.01,-19.995 -20,-20 -19.995,-33.097 -19.995,-6169.995 v -6150 l -1901.997,-2.007 -1903.008,-3.003 -592.998,-342.993 c -591.983,-342 -593,-343.005 -645,-340.005 l -52.002,3.003 -1175.991,1838.994 c -646.983,1011.983 -1185.005,1846.013 -1195.005,1853.013 -15,11 -2097.166,12.993 -11910.996,12.993 -6540.898,0 -11893.008,2.998 -11893.008,7.998 0,4 46.012,133.999 102.012,288.999 l 102.993,283.008 h 355.005 c 387.983,0 405.997,1.989 521.997,58.989 130,64 244.997,183.006 296.997,306.006 69,167 442.996,1209.996 450.996,1260.996 18,111 -34,211.998 -135,262.998 -72,36 -170.997,43.009 -566.997,39.009 -417,-3 -412.996,-2.997 -450.996,-86.997 -12,-26 -218.002,-581.016 -457.002,-1233.999 L 10485,36950 H 5268.0029 C 63.091895,36950 49.99966,36950 30,36930.005 5.000425,36905.005 5.000425,36885 30,36860 c 19.99966,-20 33.088179,-19.995 5220,-19.995 5142.915,0 5200.005,0 5200.005,-18.999 0,-11 10.002,-27.01 22.002,-35.01 36,-26 80.988,-19.001 137.988,18.999 l 52.002,35.01 h 11891.997 11891.001 l 1147.998,-1794.009 c 631,-986.983 1147.002,-1797 1147.002,-1800 0,-3 -5350.109,-5.991 -11889.99,-5.991 -11876.796,0 -11890,-0.01 -11910,-20.01 -25,-25 -25,-44.99 0,-69.99 20,-20 33.007,-20.01 624.99,-20.01 439,0 605.01,-3.001 605.01,-11.001 0,-6 -63.01,-492 -140.01,-1080 -105,-795.983 -137.99,-1073.998 -129.99,-1087.998 25,-48 56.99,-37.997 189.99,63.003 l 85.005,64.995 3.003,-488.994 c 1,-269 1,-710.994 0,-983.994 l -3.003,-495 -85.005,64.995 c -133,101 -164.99,111.003 -189.99,63.003 -8,-14 25.99,-293.016 129.99,-1083.999 77,-585 140.01,-1069.005 140.01,-1075.005 0,-7 -196.01,-10.005 -605.01,-10.005 -591.983,0 -604.99,0 -624.99,-19.995 -25,-25 -25,-45.005 0,-70.005 20,-20 33,-19.995 630,-19.995 h 609.99 V 16944.995 c 0,-10001.8283 0.01,-10014.9999 20.01,-10034.9999 25,-25 44.99,-25 69.99,0 20,20 20.01,33.1716 20.01,10034.9999 V 26960 h 4395 4395 V 13500.005 C 23080.005,53.23161 23080,39.99966 23100,20 c 25,-24.999575 45.005,-24.999575 70.005,0 20,19.99966 19.995,33.014995 19.995,625.00488 0,438.99312 3.001,604.99512 11.001,604.99512 6,0 492.017,-62.9968 1080,-139.9951 795.983,-104.9983 1073.998,-138.00473 1087.998,-130.0049 48,25 37.997,57.0066 -63.003,190.0049 l -64.995,84.9902 3990,3.0029 c 2193.966,1 5784.038,1 7979.004,0 l 3990,-3.0029 -74.004,-97.0019 c -41,-53 -76.995,-104.9864 -79.995,-115.9864 -8,-24.9983 1.99,-50.00323 24.99,-63.00289 14,-7 311.02,29.00269 1083.003,131.00099 585.983,76.9983 1070.005,139.9951 1075.005,139.9951 8,0 11.001,-189.0019 11.001,-604.99512 0,-591.989885 0,-605.00522 19.995,-625.00488 25,-24.999575 45.005,-24.999575 70.005,0 20,19.99966 19.995,33.16742 19.995,9610.0049 V 19220 h 424.995 c 412,0 426.005,0.995 445.005,19.995 11,11 19.995,27.01 19.995,35.01 0,8 -8.995,23.995 -19.995,34.995 -19,19 -33.005,19.995 -445.005,19.995 H 43350 v 5390.01 c 0,661.41 -0.04,1158.408 -0.07,1658.833 h -5.391 -7.06 -6.548 c -2.137,-0.165 -4.279,-0.32 -6.416,-0.44 -2.458,-0.1 -4.906,-0.205 -7.368,-0.205 -3.845,-0.05 -7.685,-0.09 -11.529,-0.19 -4.813,0 -9.63,-0.1 -14.443,0 -5.401,0.1 -10.802,0.16 -16.201,0 -7.028,-0.18 -14.055,-0.413 -21.079,-0.703 -4.635,-0.207 -9.271,-0.443 -13.887,-0.908 v -6.387 h -575.01 c -416.983,0 -574.995,3.001 -574.995,11.001 0,6 62.995,492.006 139.995,1078.989 77,587 138.004,1074.999 134.004,1083.999 -9,23 -40.995,38.011 -64.995,31.011 -11,-4 -63.997,-40.006 -116.997,-81.006 l -97.002,-74.004 -3.003,840 c -1,462 -1,1218.017 0,1680 l 3.003,840 97.002,-73.989 c 53,-41 105.997,-77.006 116.997,-81.006 24,-7 55.995,7.996 64.995,30.996 3,9 -57.004,495.017 -134.004,1080 -77,584 -139.995,1067.998 -139.995,1072.998 0,8 190.005,11.001 610.005,11.001 596.983,0 610,0.01 630,20.01 11,11 19.995,26.995 19.995,34.995 0,8 -8.995,23.995 -19.995,34.995 -20,20 -33.01,20.01 -635.01,20.01 h -615 v 6150 c 0,6136.898 0,6149.995 -19.995,6169.995 -11,11 -26.995,19.995 -34.995,19.995 z m -30481.011,-6999.99 h 303.003 c 174,0 323.006,-4.001 351.006,-11.001 33,-6 59.003,-20.005 78.003,-40.005 25,-26 28.989,-37.997 28.989,-86.997 0,-49 -29.988,-138.006 -212.988,-636.006 -117,-319 -220.003,-591.998 -228.003,-607.998 -28,-54 -89.004,-110.995 -149.004,-139.995 l -60,-28.008 h -338.994 c -266,0 -336.999,3.008 -333.999,13.008 3,6 129.993,355.007 282.993,774.99 z M 38250,33819.995 h 1855.005 c 1267.983,0 1854.99,-2.99 1854.99,-9.99 0,-6 -62.995,-490.022 -139.995,-1075.005 -104,-790.983 -138.005,-1069.999 -130.005,-1083.999 25,-48 57.005,-37.997 190.005,63.003 l 85.005,64.995 2.988,-840 c 1,-461 1,-1217.01 0,-1677.993 l -2.988,-840 -85.005,64.995 c -133,101 -165.005,111.003 -190.005,63.003 -8,-14 25.005,-292.015 130.005,-1087.998 77,-588 139.995,-1074 139.995,-1080 0,-8 -496.007,-11.001 -1854.99,-11.001 H 38250 v 889.995 889.995 h 1241.001 1241.001 l 86.001,82.998 c 212,206 442.996,677.005 540.996,1105.005 43,186 82.001,435.002 101.001,637.002 26,283 -69.994,860.996 -203.994,1230.996 -112,308 -280.999,598.007 -438.999,752.007 l -85.005,82.002 H 39491.001 38250 V 32930 Z m -112.002,-41.001 c 1,1 2.007,-396.001 2.007,-881.001 V 32015 l -78.003,-45 c -42,-24 -114.997,-75.002 -161.997,-112.002 -47,-37 -87,-67.998 -90,-67.998 -3,0 -175.002,266.006 -382.002,591.006 L 37050,32971.997 v 90.996 92.007 l 543.003,311.997 c 298,172 542.995,311.997 544.995,311.997 z M 18962.007,33129.995 H 23625 l -270,-270 -270,-270 -3.003,-2760 -1.992,-2760 H 18690 c -3062.949,0 -4390.005,3.001 -4390.005,11.001 0,5 63.01,489.015 140.01,1072.998 77,585 136.989,1071 133.989,1080 -9,23 -40.995,38.011 -64.995,31.011 -11,-4 -63.997,-40.006 -116.997,-81.006 l -97.002,-74.004 -3.003,489.009 c -1,269 -1,711.99 0,984.99 l 3.003,496.011 97.002,-74.004 c 53,-41 105.997,-77.006 116.997,-81.006 24,-7 55.995,8.011 64.995,31.011 4,9 -56.989,496.999 -133.989,1083.999 -77,586.983 -140.01,1072.989 -140.01,1078.989 0,8 1237.063,11.001 4662.012,11.001 z m 4857.993,0 h 5299.995 5300.01 v -24.99 V 33080 H 29119.995 23820 v 25.005 z m 10710,0 h 1143.999 1143.999 l 60.996,-94.995 61.011,-94.995 V 30005 27069.995 H 35734.995 34530 v 3030 z M 23707.002,33050 c 2,0 3.003,-1329.031 3.003,-2951.997 v -2953.008 l -260.01,260.01 L 23190,27665 v 2434.995 2435.01 l 257.007,256.992 c 142,142 258.995,258.003 259.995,258.003 z m 112.998,-79.995 h 5299.995 5300.01 V 30095 27219.995 H 29119.995 23820 V 30095 Z m 13244.004,-225 c 7,-11 157.991,-247.004 335.991,-524.004 l 322.002,-503.994 -110.991,-111.006 c -151,-152 -255.002,-287.006 -337.002,-441.006 -78,-147 -178.005,-362.99 -205.005,-444.99 -18,-54 -18.003,-34.988 -18.003,994.995 -1,888.983 1.008,1046.005 13.008,1030.005 z m 2389.995,-815.01 h 1155.996 l -570.996,-856.992 c -314,-472 -574.994,-861.997 -578.994,-866.997 -6,-6 -1076.004,1581.992 -1154.004,1711.992 -6,9 227.015,11.997 1147.998,11.997 z m -1319.004,-43.989 3.003,-153.999 c 1,-84 1,-222.01 0,-305.01 l -3.003,-151.992 -50.991,79.995 c -28,44 -86.997,136.997 -131.997,206.997 l -81.006,127.998 97.002,78.003 c 53,43 112.997,86.998 131.997,97.998 z m 2635.005,-43.008 26.001,-23.994 c 15,-13 61.004,-76.01 104.004,-140.01 95,-141 197.992,-341.994 256.992,-503.994 86,-234 162.008,-612 193.008,-960 8,-85 8,-153 0,-240 -31,-338 -108.006,-723.006 -186.006,-936.006 -83,-225 -285.998,-593.998 -367.998,-667.998 L 40770,28347.002 V 30095 Z m -112.002,-42.993 c 1,0 2.007,-768.029 2.007,-1707.012 V 28385 l -570,855 -569.004,854.004 16.992,26.997 c 46,72 1117.005,1678.004 1120.005,1679.004 z m -2399.004,-15 c 5,-6 211.009,-314.001 459.009,-686.001 l 450,-676.011 -131.001,28.008 c -73,15 -199.997,42 -281.997,60 l -151.011,30.996 -176.997,277.002 -176.997,276.006 V 31445 c 0,201 3.994,345.005 8.994,340.005 z m -463.989,-183.003 c 7,-9 86.993,-133.998 177.993,-277.998 l 167.007,-261.006 v -1376.997 -1378.008 l -37.002,23.013 c -76,47 -291.002,223.993 -397.002,327.993 -210,206 -359.004,425.998 -479.004,712.998 -67,157 -116.992,343.002 -151.992,562.002 l -26.001,158.994 26.001,166.011 c 49,321 116.994,520.996 278.994,825.996 81,151 185.008,288.997 328.008,431.997 89,89 102.998,100.005 112.998,85.005 z m 461.997,-726.006 c 4,-4 63.993,-95.994 132.993,-203.994 l 126.006,-195.996 -67.998,-315 c -37,-174 -65.007,-324.003 -62.007,-333.003 3,-10 13.002,-21.997 22.002,-26.997 9,-5 159.007,-41.006 332.007,-81.006 173,-40 320.997,-74.999 326.997,-78.999 9,-4 -121.003,-207.013 -393.003,-615.996 -224,-336 -410.005,-613.999 -415.005,-618.999 -5,-6 -8.994,516.016 -8.994,1233.999 0,683.983 3.002,1239.991 7.002,1235.991 z m 607.002,-496.992 c 11,1 16.993,-2.01 12.993,-5.01 -3,-3 -11.999,-3.996 -18.999,-0.996 -8,3 -4.994,6.006 6.006,6.006 z m 90,-20.01 c 11,1 16.993,-1.995 12.993,-4.995 -3,-3 -11.999,-3.996 -18.999,-0.996 -8,3 -4.994,5.991 6.006,5.991 z m 45.996,-11.001 c 14,0 18.993,-1.995 12.993,-4.995 -7,-2 -18.99,-2 -24.99,0 -7,3 -2.003,4.995 11.997,4.995 z m 44.004,-8.994 c 11,1 16.993,-1.995 12.993,-4.995 -3,-3 -11.999,-4.011 -18.999,-1.011 -8,3 -4.994,6.006 6.006,6.006 z m 20.991,-8.994 33.999,-5.01 c 18,-3 40.007,-4.995 47.007,-4.995 8,0 14.004,-8.995 14.004,-19.995 0,-23 -14.998,-27.01 -22.998,-5.01 -4,8 -21.009,19.005 -39.009,25.005 z m 198.999,-51.006 61.011,-91.992 61.992,-92.007 -114.99,-172.002 c -63,-95 -116.012,-171.991 -117.012,-170.991 -2,2 21.998,120.99 52.998,264.99 z M 39015,30230 c 8,0 15,-7 15,-15 0,-8 -3.994,-15 -8.994,-15 -5,0 -11,7 -15,15 -3,9 0,15 8.994,15 z m -135,-79.995 c 18,0 20.996,-4.002 15.996,-22.002 -3,-13 -8.997,-40 -11.997,-60 -4,-21 -11.999,-37.998 -18.999,-37.998 -22,0 -23.003,11.992 -3.003,31.992 19,19 19.003,31.001 3.003,71.001 -6,13 -2,17.007 15,17.007 z m -109.995,-75 c 6,-3 9.99,-10.011 9.99,-16.011 0,-5 -3.99,-8.994 -9.99,-8.994 -5,0 -10.005,6.996 -10.005,15.996 0,8 5.005,12.009 10.005,9.009 z m 326.001,-48.003 c 3,-3 3.996,-11.999 0.996,-18.999 -3,-8 -6.006,-5.009 -6.006,5.991 -1,11 2.01,17.008 5.01,13.008 z m -466.011,-41.001 c 0,18 15.998,18.004 22.998,-0.996 4,-8 21.009,-19.009 39.009,-24.009 33,-11 31.998,-10.995 -7.002,-4.995 -48,7 -55.005,11 -55.005,30 z m 830.01,-2.007 c 4,-5 264.994,-395.001 578.994,-866.001 l 570.996,-857.988 h -1155.996 c -920.983,0 -1153.998,2.993 -1147.998,12.993 78,129 1148.004,1716.996 1154.004,1710.996 z m -373.008,-0.996 c 2,-7 2,-19.005 0,-25.005 -3,-7 -4.995,-1.988 -4.995,12.012 0,14 1.995,18.993 4.995,12.993 z m -342.993,-33.999 c 11,1 16.993,-1.995 12.993,-4.995 -3,-3 -11.999,-4.011 -18.999,-1.011 -8,3 -4.994,6.006 6.006,6.006 z m 331.992,-11.997 c 3,-3 4.011,-11.999 1.011,-18.999 -3,-8 -6.006,-5.009 -6.006,5.991 -1,11 1.995,17.008 4.995,13.008 z M 38933.994,29915 c 25,19 26.001,19 26.001,0 0,-9 -9.002,-15 -22.002,-15 -22,1 -22.999,1 -3.999,15 z m -424.995,-4.995 c 5,0 11,-7 15,-15 3,-9 0,-15 -8.994,-15 -8,0 -15,7 -15,15 0,8 3.994,15 8.994,15 z m 557.007,-12.012 c 3,-3 0,-33.987 -7.002,-66.987 -6,-34 -14.003,-63.01 -18.003,-65.01 -3,-2 -18.995,-1.989 -34.995,1.011 l -28.008,5.991 30,13.008 c 29,12 52.002,56.993 52.002,102.993 0,8 3.006,11.994 6.006,8.994 z m -252.012,-78.999 c 11,1 17.008,-1.995 13.008,-4.995 -3,-3 -11.999,-3.996 -18.999,-0.996 -8,3 -5.009,5.991 5.991,5.991 z m 50.01,-9.99 c 11,1 16.993,-2.01 12.993,-5.01 -3,-3 -11.999,-3.996 -18.999,-0.996 -8,3 -4.994,6.006 6.006,6.006 z m 39.99,-10.005 c 11,1 17.008,-1.995 13.008,-4.995 -3,-3 -11.999,-4.011 -18.999,-1.011 -8,3 -5.009,6.006 5.991,6.006 z m 46.011,-11.001 c 14,0 18.993,-1.995 12.993,-4.995 -7,-2 -19.005,-2 -25.005,0 -7,3 -1.988,4.995 12.012,4.995 z m -1888.008,-288.003 c 5,-19 39,-103.998 75,-187.998 134,-312 275.009,-523.993 489.009,-732.993 120,-117 315.996,-276.009 435.996,-354.009 l 78.003,-49.995 v -882.993 -883.008 l -42.012,25.005 c -24,14 -268.995,157.003 -544.995,318.003 l -502.998,292.998 0.996,1245 c 1,841.983 4.001,1233.99 11.001,1209.99 z m 6267.935,-795.806 c 0.939,-0.439 1.847,-0.927 2.812,-1.333 0.641,-0.24 2.559,-0.977 1.919,-0.717 -1.595,0.65 -3.143,1.391 -4.731,2.05 z M 23193.003,27500 c 1,0 99.002,-96.995 217.002,-214.995 L 23625,27069.995 H 23407.002 23190 v 215.01 c 0,118 1.003,214.995 3.003,214.995 z m 5926.992,-390 c 5292.915,0 5300.01,0 5300.01,-19.995 0,-20 -7.095,-20.01 -5300.01,-20.01 -5292.915,0 -5299.995,0.01 -5299.995,20.01 0,20 7.08,19.995 5299.995,19.995 z M 23190,26960 h 5614.995 5615.01 v -3814.995 -3815.01 h -450 c -437,0 -451.01,-0.995 -470.01,-19.995 -11,-11 -19.995,-26.995 -19.995,-34.995 0,-8 8.995,-24.01 19.995,-35.01 19,-19 33.01,-19.995 470.01,-19.995 h 450 v -2385 c 0,-1660.966 -3.001,-2385 -11.001,-2385 -5,0 -489.022,62.995 -1075.005,139.995 -771.983,102 -1069.003,138.001 -1083.003,131.001 -23,-13 -32.99,-38.003 -24.99,-63.003 3,-11 38.995,-62.986 79.995,-115.986 l 74.004,-97.002 -1785,-3.003 c -981.983,-1 -2588.021,-1 -3569.004,0 l -1785,3.003 64.995,84.99 c 101,133 111.003,165.005 63.003,190.005 -14,8 -292.015,-25.005 -1087.998,-130.005 -587.983,-77 -1074,-139.995 -1080,-139.995 -8,0 -11.001,1657.085 -11.001,6255 z m 11340,0 h 1204.995 1205.01 v -3810 c 0,-2657.949 -3.001,-3810 -11.001,-3810 -5,0 -489.015,62.995 -1072.998,139.995 -585,77 -1071,137.004 -1080,134.004 -24,-9 -38,-41.006 -30,-66.006 3,-12 27.994,-48.987 53.994,-81.987 25,-34 59.004,-78.013 74.004,-98.013 l 27.993,-37.998 H 34686.006 34470 v 295.005 295.005 h 30 30 v 3519.99 z m 2520,-41.001 117.993,-67.998 c 64,-38 315.007,-184.997 557.007,-326.997 l 439.995,-258.999 2538.003,-3.003 2537.007,-2.007 v -3465 -3465 h -211.011 c -168,0 -208.987,3.008 -201.987,13.008 66,85 131.987,177 141.987,195 15,28 6.005,57.997 -19.995,71.997 -14,8 -292.015,-25.005 -1087.998,-130.005 -587.983,-77 -1074,-139.995 -1080,-139.995 -8,0 -11.001,888.039 -11.001,3340.005 0,3326.949 0,3340 -19.995,3360 -11,11 -27.01,19.995 -35.01,19.995 -8,0 -23.995,-8.995 -34.995,-19.995 -20,-20 -19.995,-33.061 -19.995,-3365.01 v -3345 H 38854.995 37050 v 3795 z M 34470,19220 h 216.006 215.991 l -27.993,-37.002 c -15,-21 -48.004,-64.998 -74.004,-97.998 -25,-33 -48.998,-68.999 -52.998,-78.999 -10,-25 0,-54.006 23.994,-66.006 14,-8 294.02,26.005 1083.003,130.005 585.983,77 1070.005,139.995 1075.005,139.995 8,0 11.001,-1651.058 11.001,-5469.99 0,-3818.9371 -3.001,-5470.005 -11.001,-5470.005 -5,0 -489.022,62.9968 -1075.005,139.9951 -771.983,101.9983 -1069.003,138.001 -1083.003,131.001 -23,-13 -32.99,-38.0046 -24.99,-63.0029 3,-11 38.995,-62.9864 79.995,-115.9864 l 74.004,-97.0019 -2415,-3.0029 c -1327.983,-1 -3501.021,-1 -4829.004,0 l -2415,3.0029 64.995,84.9902 c 101,132.9983 111.003,165.0049 63.003,190.0049 -14,8 -292.015,-25.0066 -1087.998,-130.0049 -587.983,-76.9983 -1074,-139.9951 -1080,-139.9951 -8,0 -11.001,805.0407 -11.001,3025.005 0,2219.966 3.001,3024.99 11.001,3024.99 6,0 492.017,-62.995 1080,-139.995 795.983,-105 1073.998,-138.005 1087.998,-130.005 48,25 37.997,57.005 -63.003,190.005 l -64.995,85.005 1785,2.988 c 980.983,1 2587.021,1 3569.004,0 l 1785,-2.988 -74.004,-97.002 c -41,-53 -76.995,-105.001 -79.995,-116.001 -8,-25 1.99,-50.003 24.99,-63.003 14,-7 311.02,29.001 1083.003,131.001 585.983,77 1070.005,139.995 1075.005,139.995 8,0 11.001,-188.995 11.001,-604.995 0,-591.983 0,-605.005 19.995,-625.005 11,-11 26.995,-19.995 34.995,-19.995 8,0 24.01,8.995 35.01,19.995 20,20 19.995,33.061 19.995,2780.01 v 2760 h -30 -30 v 294.99 z m 2580,0 h 1804.995 1805.01 v -610.005 c 0,-596.983 0,-610 19.995,-630 11,-11 26.995,-19.995 34.995,-19.995 8,0 24.01,8.995 35.01,19.995 20,20 19.995,33.022 19.995,625.005 0,439 3.001,604.995 11.001,604.995 6,0 492.017,-62.995 1080,-139.995 795.983,-105 1073.998,-138.005 1087.998,-130.005 26,14 34.995,44.012 19.995,72.012 -10,18 -75.987,109.996 -141.987,195.996 -7,9 33.987,11.997 201.987,11.997 h 211.011 v -8920.005 c 0,-6230.8929 -3.001,-8919.9901 -11.001,-8919.9901 -5,0 -489.022,62.9968 -1075.005,139.9951 -771.983,101.9983 -1069.003,138.001 -1083.003,131.001 -23,-13 -32.99,-38.003 -24.99,-63.003 3,-10.9983 38.995,-63.0026 79.995,-116.0009 l 74.004,-97.002 -3990,-2.9883 c -2194.966,-1 -5785.038,-1 -7979.004,0 l -3990,2.9883 64.995,85.0049 c 101,132.9983 111.003,165.0049 63.003,190.0049 -14,8 -292.015,-25.0066 -1087.998,-130.0049 -587.983,-76.9983 -1074,-139.9951 -1080,-139.9951 -8,0 -11.001,898.0376 -11.001,3379.9951 0,2481.9575 3.001,3379.9951 11.001,3379.9951 6,0 492.017,-62.9968 1080,-139.9951 795.983,-104.9983 1073.998,-138.0049 1087.998,-130.0049 48,25 37.997,57.0066 -63.003,190.0049 l -64.995,85.0049 2415,2.9883 c 1327.983,1 3501.021,1 4829.004,0 l 2415,-2.9883 -73.008,-96.0059 c -41,-51.9983 -76.995,-103.9941 -79.995,-113.9941 -10,-24 0,-53.0098 23.994,-65.0098 14,-8 294.02,26.0066 1083.003,130.0049 585.983,76.9983 1070.005,139.9951 1075.005,139.9951 8,0 11.001,-189.0019 11.001,-604.9951 0,-591.9898 0,-605.0049 19.995,-625.0049 11,-11 26.995,-19.9951 34.995,-19.9951 8,0 24.01,8.9951 35.01,19.9951 20,20 19.995,33.1053 19.995,6164.9999 z"
       clip-path="url(#clipPath122)"
       transform="translate(890.24968)" />
    <path
       d="m 29339.25,18536 c -19,-7 -229,-148 -465,-313 -488,-343 -506,-360 -453,-427 25,-32 64,-34 117,-7 20,11 165,109 322,219 157,110 286,198 287,197 2,-1 -148,-413 -333,-916 -516,-1408 -506,-1378 -499,-1400 4,-12 22,-27 41,-35 45,-19 100,-5 138,35 22,23 124,292 482,1268 250,681 461,1260 469,1287 17,58 9,79 -36,95 -18,6 -32,11 -33,11 -1,-1 -17,-7 -37,-14 z"
       id="path2" />
    <path
       d="m 30640.25,18543 c -231,-36 -429,-142 -586,-313 -106,-116 -156,-209 -229,-424 -65,-193 -59,-313 23,-434 19,-28 33,-53 31,-55 -2,-2 -42,-25 -89,-52 -148,-85 -292,-215 -369,-334 -34,-54 -108,-236 -192,-478 -41,-118 -54,-213 -39,-283 33,-149 131,-255 281,-301 90,-28 428,-28 547,1 275,66 529,275 634,522 46,110 164,437 178,496 33,139 -19,318 -114,392 -25,19 -45,37 -45,40 -1,3 22,21 51,40 78,52 184,152 235,222 52,70 84,139 156,328 50,132 51,138 51,245 1,104 -1,113 -31,170 -51,99 -139,167 -253,198 -57,15 -196,27 -240,20 z m 143,-213 c 55,-21 114,-73 140,-125 39,-79 31,-158 -35,-334 -68,-182 -85,-210 -172,-296 -128,-125 -264,-185 -422,-185 -137,0 -225,47 -270,144 -44,95 -25,208 75,442 73,171 232,308 419,359 75,21 202,18 265,-5 z m -332,-1155 c 66,-23 122,-75 149,-137 38,-87 27,-154 -65,-403 -94,-256 -113,-296 -162,-360 -79,-101 -232,-199 -353,-225 -35,-7 -124,-10 -240,-8 -176,3 -188,4 -235,29 -98,50 -153,161 -135,273 10,63 135,415 185,521 37,77 157,198 245,247 130,72 216,89 425,83 93,-3 155,-9 186,-20 z"
       id="path3" />
    <path
       d="m 40149.25,23381 c -550,-220 -991,-635 -1203,-1131 -55,-131 -344,-917 -362,-985 -32,-129 -27,-209 22,-307 48,-95 132,-164 245,-199 90,-28 428,-28 547,1 272,65 529,275 632,518 46,109 166,443 180,501 8,33 11,87 8,142 -5,72 -10,97 -33,136 -58,100 -135,162 -244,195 -59,19 -102,21 -423,25 l -357,5 31,62 c 89,177 275,402 458,553 163,135 364,252 565,328 117,45 165,86 165,139 0,79 -65,84 -231,17 z m -318,-1315 c 67,-24 122,-76 149,-138 38,-87 27,-154 -65,-403 -94,-256 -113,-296 -162,-360 -79,-101 -232,-199 -353,-225 -35,-7 -124,-10 -240,-8 -176,3 -188,4 -235,29 -60,30 -109,92 -130,161 -27,91 -28,86 247,831 l 51,139 346,-4 c 295,-4 353,-7 392,-22 z"
       id="path4" />
    <path
       d="m 30065.25,12346 c -157,-41 -310,-126 -433,-240 -94,-88 -190,-203 -197,-237 -13,-60 42,-99 109,-77 18,6 76,56 141,123 126,129 186,172 311,221 74,29 106,36 194,41 152,8 252,-25 346,-116 135,-130 118,-333 -44,-527 -32,-38 -456,-438 -942,-888 -487,-451 -893,-831 -902,-845 -23,-34 -23,-84 0,-104 17,-15 78,-17 677,-17 650,0 658,0 692,21 33,21 63,64 63,93 0,8 -11,28 -24,43 l -24,28 -531,5 -530,5 755,699 c 415,385 799,745 852,800 141,145 201,238 241,372 26,89 28,219 4,290 -35,105 -127,208 -238,267 -130,70 -348,87 -520,43 z"
       id="path5" />
    <path
       d="m 32065.25,12346 c -157,-41 -310,-126 -433,-240 -94,-88 -190,-203 -197,-237 -13,-60 42,-99 109,-77 18,6 76,56 141,123 126,129 186,172 311,221 74,29 106,36 194,41 152,8 252,-25 346,-116 135,-130 118,-333 -44,-527 -32,-38 -456,-438 -942,-888 -487,-451 -893,-831 -902,-845 -23,-34 -23,-84 0,-104 17,-15 78,-17 677,-17 650,0 658,0 692,21 33,21 63,64 63,93 0,8 -11,28 -24,43 l -24,28 -531,5 -530,5 755,699 c 415,385 799,745 852,800 141,145 201,238 241,372 26,89 28,219 4,290 -35,105 -127,208 -238,267 -130,70 -348,87 -520,43 z"
       id="path6" />
    <path
       d="m 32935.25,5481 c -62,-16 -116,-72 -117,-121 -2,-57 -1,-57 290,-62 304,-5 345,-14 414,-85 95,-99 98,-184 16,-402 -66,-176 -86,-210 -167,-292 -121,-121 -240,-176 -424,-195 -51,-5 -64,-11 -103,-48 -33,-32 -44,-50 -44,-73 0,-49 23,-60 144,-67 60,-3 127,-11 150,-18 128,-37 200,-149 183,-286 -5,-43 -113,-353 -168,-483 -67,-159 -214,-291 -392,-352 -19,-6 -167,-13 -372,-16 -308,-5 -343,-8 -370,-25 -44,-27 -76,-71 -77,-106 -2,-61 -9,-60 361,-60 297,0 345,2 416,19 215,52 434,201 559,380 50,71 82,144 171,386 84,231 100,299 92,392 -10,106 -87,238 -163,281 -10,6 -17,12 -14,15 3,2 39,29 80,59 101,75 188,161 236,233 41,61 137,308 169,435 42,162 -22,335 -156,421 -94,60 -154,70 -434,75 -137,2 -263,0 -280,-5 z"
       id="path7" />
    <path
       d="m 35085.25,5456 c -157,-41 -310,-126 -433,-240 -94,-88 -190,-203 -197,-237 -13,-60 42,-99 109,-77 18,6 76,56 141,123 126,129 186,172 311,221 74,29 106,36 194,41 152,8 252,-25 346,-116 135,-130 118,-333 -44,-527 -32,-38 -456,-438 -942,-888 -487,-451 -893,-831 -902,-845 -23,-34 -23,-84 0,-104 17,-15 78,-17 677,-17 650,0 658,0 692,21 33,21 63,64 63,93 0,8 -11,28 -24,43 l -24,28 -531,5 -530,5 755,699 c 415,385 799,745 852,800 141,145 201,238 241,372 26,89 28,219 4,290 -35,105 -127,208 -238,267 -130,70 -348,87 -520,43 z"
       id="path8" />
    <path
       d="m 38960.25,44253 c -61,-22 -150,-83 -195,-135 -91,-107 -135,-239 -135,-409 0,-249 92,-465 281,-664 101,-105 181,-170 222,-180 34,-9 74,15 79,47 9,58 -12,91 -127,203 -129,126 -171,185 -221,311 -45,114 -57,257 -30,353 56,201 214,312 387,271 79,-19 170,-66 244,-127 35,-29 432,-450 881,-936 449,-485 830,-892 847,-904 38,-28 88,-30 110,-5 15,17 17,79 17,682 v 663 l -44,43 c -49,50 -73,54 -113,20 l -28,-24 -5,-531 -5,-530 -699,755 c -385,415 -745,799 -800,852 -145,141 -259,213 -389,248 -70,18 -220,17 -277,-3 z"
       id="path9" />
    <path
       d="m 38658.25,42469 c -29,-16 -41,-72 -24,-113 8,-20 150,-229 316,-465 342,-489 362,-510 425,-446 29,28 32,63 8,108 -9,18 -107,164 -219,325 -112,160 -202,292 -200,292 2,0 421,-153 932,-341 1381,-507 1364,-501 1386,-493 11,3 26,21 34,40 19,45 5,100 -35,138 -22,21 -303,128 -1291,491 -694,254 -1274,465 -1289,468 -14,3 -34,1 -43,-4 z"
       id="path10" />
    <path
       d="m 38324.25,40827 c -24,-21 -26,-28 -20,-69 10,-67 57,-105 374,-303 l 273,-170 -6,-65 c -8,-85 10,-234 39,-335 78,-268 315,-573 576,-740 250,-160 534,-206 760,-124 103,38 192,104 240,179 l 31,48 301,-190 c 166,-105 315,-194 331,-199 65,-18 105,33 85,109 -5,22 -20,49 -32,61 -11,11 -153,103 -314,205 l -294,185 -3,163 c -2,144 -6,174 -29,252 -106,347 -416,696 -737,829 -126,52 -190,67 -326,74 -146,7 -218,-5 -320,-53 -77,-37 -177,-121 -213,-180 -12,-19 -25,-34 -29,-34 -4,0 -133,79 -286,176 -154,97 -292,182 -307,190 -38,20 -63,18 -94,-9 z m 1418,-318 c 296,-64 603,-363 686,-669 24,-87 35,-201 24,-248 l -7,-33 -595,377 c -327,207 -602,382 -610,390 -35,34 142,159 265,187 41,9 186,7 237,-4 z m 38,-749 c 316,-199 581,-367 587,-372 18,-14 -25,-67 -91,-113 -109,-75 -260,-95 -417,-55 -159,41 -288,117 -419,249 -180,180 -265,358 -277,576 l -6,109 24,-15 c 13,-9 283,-179 599,-379 z"
       id="path11" />
    <path
       d="m 3487.2497,40221 c -82,-17 -68,15 -463,-1062 -582,-1587 -576,-1568 -569,-1590 10,-32 68,-52 113,-39 75,20 79,29 293,611 109,299 199,544 199,546 0,2 165,3 368,3 400,0 427,3 570,64 210,89 408,273 489,454 47,105 175,466 189,532 17,82 17,122 0,185 -36,135 -134,234 -274,277 -62,19 -96,21 -472,24 -223,1 -422,-1 -443,-5 z m 802,-204 c 127,-49 195,-166 171,-294 -11,-63 -137,-415 -182,-513 -46,-97 -166,-212 -278,-267 -127,-62 -151,-65 -531,-61 l -335,3 210,578 211,578 345,-4 c 293,-3 352,-6 389,-20 z"
       id="path12" />
    <path
       d="m 19241.25,40220 c -48,-11 -112,-78 -113,-118 -2,-64 -14,-62 397,-62 205,0 396,-4 424,-10 90,-17 136,-74 122,-151 -3,-19 -37,-121 -76,-226 l -70,-191 -355,-4 -355,-4 -80,-28 c -165,-57 -303,-172 -368,-307 -53,-110 -456,-1217 -468,-1287 -16,-88 7,-159 69,-221 77,-77 97,-81 436,-81 318,0 345,4 458,59 125,62 246,184 293,296 44,106 720,1957 732,2005 16,67 9,128 -22,190 -42,81 -108,123 -220,139 -82,12 -754,13 -804,1 z m 609,-956 c 0,-11 -492,-1349 -507,-1377 -28,-55 -92,-114 -153,-141 l -60,-27 -267,3 c -257,3 -269,4 -299,25 -37,26 -53,74 -43,128 8,46 410,1149 441,1210 42,85 122,146 223,171 51,13 665,20 665,8 z"
       id="path13" />
    <path
       d="m 31509.25,40216 c -19,-7 -229,-148 -465,-313 -488,-343 -506,-360 -453,-427 25,-32 64,-34 117,-7 20,11 165,109 322,219 157,110 286,198 287,197 2,-1 -148,-413 -333,-916 -516,-1408 -506,-1378 -499,-1400 4,-12 22,-27 41,-35 45,-19 100,-5 138,35 22,23 124,292 482,1268 250,681 461,1260 469,1287 17,58 9,79 -36,95 -18,6 -32,11 -33,11 -1,-1 -17,-7 -37,-14 z"
       id="path14" />
    <path
       d="m 32714.25,40221 c -301,-35 -616,-258 -736,-521 -38,-83 -586,-1577 -605,-1649 -19,-71 -21,-185 -5,-238 20,-66 92,-163 152,-206 94,-65 152,-77 384,-77 164,0 216,4 281,19 259,63 512,261 619,486 33,70 580,1552 610,1653 58,200 5,357 -162,471 -60,41 -155,61 -317,66 -82,2 -182,0 -221,-4 z m 327,-206 c 26,-9 65,-32 87,-51 91,-78 109,-188 54,-344 -59,-170 -541,-1479 -567,-1540 -65,-155 -203,-276 -383,-336 -70,-24 -84,-25 -271,-22 -188,3 -199,4 -246,29 -98,50 -153,162 -135,273 9,58 559,1572 605,1669 84,173 282,313 480,338 95,12 323,2 376,-16 z"
       id="path15" />
    <path
       d="m 5495.2497,39450 c -82,-11 -142,-31 -221,-75 -82,-46 -198,-155 -241,-227 -35,-57 -457,-1194 -480,-1293 -32,-135 30,-259 154,-305 49,-18 78,-20 346,-20 345,0 387,8 515,93 l 42,28 58,-60 c 56,-60 59,-61 111,-61 64,0 114,32 137,86 21,51 18,61 -36,101 -59,44 -74,76 -68,146 3,35 94,293 272,778 146,400 266,740 266,756 0,58 2,58 -414,59 -210,1 -408,-2 -441,-6 z m 605,-186 c 0,-13 -493,-1351 -510,-1383 -22,-42 -79,-98 -135,-132 -40,-24 -41,-24 -325,-24 -277,0 -286,1 -316,22 -37,26 -53,74 -43,128 9,51 412,1153 446,1220 39,78 124,142 213,161 56,13 670,20 670,8 z"
       id="path16" />
    <path
       d="m 7310.2497,39446 c -93,-15 -199,-60 -270,-113 -69,-50 -157,-143 -170,-179 -19,-49 10,-93 62,-94 47,0 79,19 143,84 38,38 85,74 121,92 57,27 65,28 209,29 170,0 209,-12 253,-76 32,-46 27,-81 -38,-259 -61,-167 -82,-204 -142,-252 -78,-63 -131,-78 -270,-78 -171,0 -193,-5 -244,-55 -36,-34 -44,-48 -44,-78 0,-24 6,-39 18,-46 9,-5 80,-11 157,-13 114,-3 147,-7 180,-23 50,-25 85,-76 85,-125 0,-43 -98,-321 -135,-385 -28,-46 -78,-90 -145,-126 -43,-23 -55,-24 -269,-27 -156,-2 -232,0 -252,8 -34,15 -64,60 -73,112 -4,21 -14,44 -22,53 -24,24 -85,19 -132,-12 -57,-37 -68,-68 -52,-144 17,-77 64,-140 133,-177 52,-27 53,-27 293,-30 272,-4 313,2 442,66 163,81 254,182 323,358 97,247 122,332 116,396 -3,32 -15,76 -26,98 -12,23 -21,45 -21,49 0,5 22,23 48,40 60,38 140,137 174,216 15,33 50,123 78,200 84,227 80,306 -19,406 -44,44 -70,61 -112,74 -72,21 -300,28 -399,11 z"
       id="path17" />
    <path
       d="m 10905.25,39450 c -82,-11 -142,-31 -221,-75 -82,-46 -198,-155 -241,-227 -35,-57 -457.0003,-1194 -480.0003,-1293 -32,-135 30.0003,-259 154.0003,-305 51,-19 79,-20 479,-20 461,0 459,0 503,56 26,33 27,75 2,105 l -19,24 -414,5 c -384,5 -415,6 -441,24 -40,27 -58,77 -48,129 6,32 102,304 178,505 4,9 113,12 497,12 469,0 492,1 523,20 17,10 37,29 43,41 33,61 242,652 249,703 22,159 -74,274 -246,297 -81,10 -433,9 -518,-1 z m 426,-190 c 38,-7 63,-19 84,-40 27,-28 30,-36 29,-93 -1,-52 -16,-101 -91,-302 l -90,-240 -416,-3 -416,-2 25,67 c 14,38 53,142 86,233 33,91 69,183 80,205 42,84 137,156 232,175 60,12 414,12 477,0 z"
       id="path18" />
    <path
       d="m 15460.25,39451 c -54,-11 -78,-28 -99,-69 -21,-41 -644,-1740 -655,-1784 -5,-21 -1,-33 15,-49 18,-18 30,-21 77,-17 97,8 80,-29 422,906 l 304,832 h 297 c 335,0 390,-6 434,-50 26,-27 30,-37 30,-88 0,-50 -35,-151 -266,-782 -147,-399 -269,-737 -273,-752 -5,-21 -1,-33 15,-49 18,-18 30,-21 76,-17 97,8 81,-25 389,813 178,487 278,772 284,813 12,89 -7,150 -69,212 -82,82 -87,83 -546,86 -220,1 -416,-1 -435,-5 z"
       id="path19" />
    <path
       d="m 17495.25,39450 c -83,-11 -143,-31 -221,-75 -82,-46 -198,-155 -241,-227 -35,-57 -457,-1194 -480,-1293 -32,-135 30,-259 154,-305 49,-18 78,-20 346,-20 320,0 346,4 460,60 131,64 242,180 295,305 12,28 116,308 232,624 134,367 214,598 220,638 12,91 -7,151 -69,213 -76,76 -105,82 -391,85 -135,2 -272,0 -305,-5 z m 426,-190 c 38,-7 63,-19 84,-40 26,-27 30,-37 30,-88 0,-49 -29,-135 -214,-637 -117,-318 -221,-595 -231,-615 -22,-41 -79,-97 -135,-131 -40,-24 -41,-24 -325,-24 -277,0 -286,1 -316,22 -37,26 -53,74 -43,128 9,51 412,1153 446,1220 39,78 124,142 213,161 68,15 417,18 491,4 z"
       id="path20" />
    <path
       d="m 24193.25,39447 c -24,-7 -54,-23 -67,-37 -36,-36 -1086,-1776 -1092,-1810 -5,-21 0,-34 16,-50 19,-19 30,-22 72,-18 40,4 56,12 83,39 18,19 259,409 535,867 l 502,832 h 214 c 118,0 214,-3 214,-6 0,-3 -134,-373 -299,-822 -164,-449 -301,-829 -305,-844 -5,-21 -1,-33 15,-49 18,-18 30,-21 76,-17 98,8 76,-39 439,949 178,486 325,897 326,912 3,61 0,62 -360,64 -226,1 -340,-2 -369,-10 z"
       id="path21" />
    <path
       d="m 26235.25,39449 c -123,-16 -236,-74 -346,-178 -41,-38 -88,-93 -106,-122 -18,-30 -75,-169 -126,-309 l -94,-255 -106,-3 -107,-3 11,28 c 86,222 279,764 279,784 0,60 -80,78 -150,34 -22,-14 -46,-37 -54,-52 -17,-34 -641,-1737 -650,-1775 -5,-21 -1,-33 15,-49 18,-18 30,-21 76,-17 93,8 94,10 258,458 80,217 145,395 145,397 0,2 48,3 106,3 81,0 105,-3 101,-12 -62,-167 -179,-494 -187,-528 -22,-84 5,-195 62,-247 12,-11 43,-32 68,-45 42,-21 59,-23 235,-26 216,-4 264,3 372,55 130,63 245,177 295,292 11,25 116,309 235,631 192,522 216,593 220,660 8,120 -34,198 -134,250 -71,36 -265,50 -418,29 z m 223,-189 c 82,-18 120,-69 109,-149 -5,-40 -416,-1170 -447,-1231 -22,-43 -92,-111 -140,-136 -29,-16 -63,-19 -205,-22 -164,-3 -171,-3 -204,20 -43,29 -60,77 -50,134 11,56 425,1184 452,1232 23,40 85,100 127,123 65,35 257,50 358,29 z"
       id="path22" />
    <path
       d="m 8570.2497,39427 c -19,-12 -42,-36 -51,-52 -18,-31 -641,-1729 -653,-1777 -5,-21 -1,-33 15,-49 18,-18 30,-21 77,-17 96,8 84,-16 376,781 143,389 263,704 267,700 4,-4 53,-136 109,-293 55,-156 107,-295 116,-307 16,-25 54,-30 97,-14 20,8 234,199 678,608 22,20 -15,-90 -231,-679 -142,-387 -260,-715 -264,-730 -5,-21 -1,-33 15,-49 18,-18 30,-21 76,-17 98,8 76,-39 438,949 179,486 325,891 325,900 0,9 -9,28 -21,43 -24,31 -67,34 -116,8 -17,-9 -212,-183 -433,-387 -221,-203 -405,-371 -408,-372 -4,-2 -65,165 -137,369 -71,205 -137,380 -147,390 -25,25 -87,23 -128,-5 z"
       id="path23" />
    <path
       d="m 21988.25,39424 c -21,-13 -44,-36 -52,-52 -17,-33 -641,-1736 -650,-1774 -5,-21 -1,-33 15,-49 18,-18 30,-21 76,-17 89,8 99,23 209,324 52,142 106,289 120,326 l 26,67 150,111 c 83,62 154,108 158,103 5,-4 70,-206 146,-448 75,-242 144,-450 152,-462 11,-18 24,-23 54,-23 65,0 133,49 143,104 5,23 -33,159 -144,516 -83,266 -149,485 -148,486 174,123 882,656 905,681 56,63 31,133 -48,133 -46,0 -29,12 -715,-503 -297,-223 -541,-404 -543,-403 -1,2 65,187 148,413 82,225 150,421 150,435 0,59 -84,77 -152,32 z"
       id="path24" />
    <path
       d="m 27488.25,39424 c -21,-13 -44,-37 -52,-52 -34,-66 -227,-612 -236,-668 -18,-113 38,-221 140,-268 42,-20 67,-21 411,-26 l 366,-5 -142,-390 c -78,-214 -145,-402 -149,-417 -5,-21 -1,-33 15,-49 18,-18 30,-21 76,-17 98,8 76,-39 438,949 179,486 325,896 325,910 0,60 -80,78 -150,34 -22,-14 -46,-37 -54,-53 -8,-15 -73,-187 -144,-382 -72,-195 -134,-363 -137,-373 -7,-17 -29,-18 -354,-15 -328,3 -347,4 -373,23 -36,27 -52,66 -46,118 3,23 53,173 112,333 58,160 106,302 106,316 0,59 -84,77 -152,32 z"
       id="path25" />
    <path
       d="m 10989.25,22101 -24,-19 -3,-504 c -2,-276 0,-532 3,-567 12,-115 -16,-100 669,-351 330,-121 611,-220 626,-220 49,0 50,5 50,299 0,298 9,394 41,456 50,97 109,130 229,129 81,0 96,-4 292,-77 244,-90 292,-112 364,-168 84,-65 178,-201 217,-313 6,-18 13,-175 16,-371 6,-313 8,-343 25,-372 39,-63 102,-94 141,-69 l 25,16 v 336 c 0,368 -5,414 -62,547 -98,230 -275,419 -475,506 -105,46 -439,166 -502,181 -80,19 -199,8 -264,-24 -72,-35 -126,-84 -164,-147 -55,-92 -64,-147 -71,-425 l -7,-251 -480,176 -480,177 -5,494 c -4,369 -8,501 -17,517 -34,59 -101,79 -144,44 z"
       id="path26" />
    <path
       d="m 11300.25,20143 c -61,-22 -150,-83 -195,-135 -91,-107 -135,-239 -135,-409 0,-249 92,-465 281,-664 101,-105 181,-170 222,-180 34,-9 74,15 79,47 9,58 -12,91 -127,203 -129,126 -171,185 -221,311 -45,114 -57,257 -30,353 56,201 214,312 387,271 79,-19 170,-66 244,-127 35,-29 432,-450 881,-936 449,-485 830,-892 847,-904 38,-28 88,-30 110,-5 15,17 17,79 17,682 v 663 l -44,43 c -49,50 -73,54 -113,20 l -28,-24 -5,-531 -5,-530 -699,755 c -385,415 -745,799 -800,852 -145,141 -259,213 -389,248 -70,18 -220,17 -277,-3 z"
       id="path27" />
    <path
       d="m 10998.25,17699 c -29,-16 -41,-72 -24,-113 8,-20 150,-229 316,-465 342,-489 362,-510 425,-446 29,28 32,63 8,108 -9,18 -107,164 -219,325 -112,160 -202,292 -200,292 2,0 421,-153 932,-341 1381,-507 1364,-501 1386,-493 11,3 26,21 34,40 19,45 5,100 -35,138 -22,21 -303,128 -1291,491 -694,254 -1274,465 -1289,468 -14,3 -34,1 -43,-4 z"
       id="path28" />
    <path
       d="m 13514.25,17478 c -24,-19 -26,-26 -21,-71 4,-42 11,-55 48,-91 36,-36 339,-235 416,-275 33,-17 68,-13 88,9 24,27 16,99 -18,143 -27,35 -407,283 -457,297 -23,7 -35,4 -56,-12 z"
       id="path29" />
    <path
       d="m 11760.25,16060 c -24,-24 -26,-79 -5,-123 8,-18 177,-189 376,-381 198,-191 359,-350 357,-351 -2,-2 -163,-41 -358,-86 -241,-57 -360,-89 -372,-101 -53,-53 19,-198 97,-198 9,0 201,43 426,96 l 409,96 49,-44 c 27,-24 220,-208 429,-410 241,-232 391,-370 408,-374 17,-4 37,-2 53,7 37,21 41,89 9,140 -13,19 -184,190 -381,379 -196,189 -356,345 -354,347 2,2 163,39 358,83 194,45 364,87 376,96 18,11 23,24 23,55 0,66 -45,129 -102,143 -17,4 -176,-28 -444,-89 l -419,-95 -40,39 c -22,21 -206,199 -410,396 -203,197 -383,366 -400,376 -39,24 -60,24 -85,-1 z"
       id="path30" />
    <path
       d="m 11265.25,14416 c -131,-33 -235,-135 -277,-274 -29,-94 -31,-408 -4,-527 63,-279 282,-552 525,-655 178,-76 1605,-592 1678,-607 71,-15 90,-16 144,-4 159,32 267,133 313,290 23,78 23,423 0,523 -61,267 -273,535 -508,641 -115,53 -1613,597 -1681,612 -83,17 -123,18 -190,1 z m 220,-219 c 85,-19 1586,-572 1670,-616 120,-62 218,-177 284,-333 25,-60 26,-73 29,-261 4,-221 -4,-263 -59,-330 -35,-43 -105,-82 -164,-91 -22,-3 -67,0 -100,7 -65,14 -1568,564 -1649,603 -148,71 -285,245 -327,414 -21,83 -17,381 5,439 32,87 102,151 184,170 52,12 59,12 127,-2 z"
       id="path31" />
    <path
       d="m 10998.25,12619 c -29,-16 -41,-72 -24,-113 8,-20 150,-229 316,-465 342,-489 362,-510 425,-446 29,28 32,63 8,108 -9,18 -107,164 -219,325 -112,160 -202,292 -200,292 2,0 421,-153 932,-341 1381,-507 1364,-501 1386,-493 11,3 26,21 34,40 19,45 5,100 -35,138 -22,21 -303,128 -1291,491 -694,254 -1274,465 -1289,468 -14,3 -34,1 -43,-4 z"
       id="path32" />
    <path
       d="m 10979.25,11224 c -20,-25 -14,-81 15,-123 14,-20 274,-295 577,-610 302,-315 548,-575 546,-577 -2,-2 -248,-78 -548,-170 -299,-91 -554,-172 -567,-180 -50,-32 -47,-106 6,-157 22,-22 279,-120 1128,-431 1543,-566 1463,-538 1486,-530 11,3 26,21 34,40 19,45 5,100 -34,137 -22,22 -275,118 -1113,426 -596,219 -1090,400 -1098,402 -7,3 198,67 455,144 258,76 484,145 501,154 38,17 47,39 38,87 -6,37 -7,37 -748,803 -136,140 -245,256 -244,258 2,1 482,-173 1068,-388 585,-215 1077,-395 1094,-400 42,-13 65,-2 81,37 19,45 5,100 -35,138 -23,22 -299,127 -1292,492 -784,287 -1278,464 -1300,464 -21,0 -42,-7 -50,-16 z"
       id="path33" />
    <ellipse
       style="fill:#000000;stroke-width:7.5"
       id="path124"
       cx="39534.859"
       cy="-30347.992"
       transform="scale(1,-1)"
       rx="355.39117"
       ry="341.07648" />
    <ellipse
       style="fill:#000000;stroke-width:7.5"
       id="path125"
       cx="39483.898"
       cy="-30459.279"
       transform="scale(1,-1)"
       rx="140.65083"
       ry="114.72398" />
  </g>
</svg>
